<svg width="67" height="26" viewBox="0 0 67 26" fill="none" xmlns="http://www.w3.org/2000/svg">
<path d="M1.08 25C0.568 25 0.312 24.7973 0.312 24.392V24.264C0.312 24.008 0.525333 23.624 0.952 23.112C1.37867 22.5787 1.592 22.0453 1.592 21.512V5.768C1.592 5.23467 1.37867 4.712 0.952 4.2C0.525333 3.66667 0.312 3.272 0.312 3.016V2.888C0.312 2.48267 0.568 2.28 1.08 2.28H8.056C8.568 2.28 8.824 2.48267 8.824 2.888V3.016C8.824 3.272 8.58933 3.66667 8.12 4.2C7.672 4.712 7.448 5.23467 7.448 5.768L7.416 12.296H15.832L15.864 5.768C15.864 5.23467 15.6507 4.712 15.224 4.2C14.8187 3.66667 14.616 3.272 14.616 3.016V2.888C14.616 2.48267 14.8613 2.28 15.352 2.28H22.328C22.84 2.28 23.096 2.48267 23.096 2.888V3.016C23.096 3.272 22.8507 3.66667 22.36 4.2C21.8907 4.712 21.656 5.23467 21.656 5.768V21.512C21.656 22.0453 21.8907 22.5787 22.36 23.112C22.8507 23.624 23.096 24.008 23.096 24.264V24.392C23.096 24.7973 22.84 25 22.328 25H15.352C14.8613 25 14.616 24.7973 14.616 24.392V24.264C14.616 24.008 14.8187 23.624 15.224 23.112C15.6507 22.5787 15.864 22.0453 15.864 21.512L15.832 14.792H7.448L7.416 21.512C7.416 22.0453 7.65067 22.5787 8.12 23.112C8.58933 23.624 8.824 24.008 8.824 24.264V24.392C8.824 24.7973 8.568 25 8.056 25H1.08ZM37.5763 19.944C37.8109 19.7093 38.0669 19.6453 38.3443 19.752C38.6429 19.8373 38.7816 20.0507 38.7603 20.392C38.7176 21.4587 38.0989 22.5467 36.9043 23.656C35.7096 24.7653 34.1629 25.32 32.2643 25.32C29.9389 25.32 28.0403 24.5733 26.5683 23.08C25.0963 21.5867 24.3603 19.6347 24.3603 17.224C24.3603 14.92 25.1283 13.032 26.6643 11.56C28.2216 10.0667 30.0776 9.32 32.2323 9.32C34.1736 9.32 35.6776 9.768 36.7443 10.664C37.8109 11.56 38.3443 12.5733 38.3443 13.704C38.3443 14.6 37.9283 15.2613 37.0963 15.688L30.7283 19.272C31.6029 20.6587 32.8189 21.352 34.3763 21.352C35.0376 21.352 35.6563 21.224 36.2323 20.968C36.8296 20.6907 37.2776 20.3493 37.5763 19.944ZM31.6562 10.888C31.0163 10.888 30.4936 11.208 30.0883 11.848C29.7043 12.488 29.5123 13.288 29.5123 14.248C29.5123 15.528 29.6723 16.648 29.9923 17.608L32.9683 15.816C33.5229 15.432 33.8003 14.888 33.8003 14.184C33.8003 13.48 33.6189 12.7547 33.2563 12.008C32.9149 11.2613 32.3816 10.888 31.6562 10.888ZM55.3125 21.512C55.3765 22.024 55.4938 22.44 55.6645 22.76C55.8565 23.0587 56.0378 23.2507 56.2085 23.336C56.4005 23.4213 56.5712 23.528 56.7205 23.656C56.8698 23.784 56.9445 23.944 56.9445 24.136C56.9445 24.84 55.7392 25.192 53.3285 25.192C52.3472 25.192 51.6112 25.0747 51.1205 24.84C50.6512 24.6053 50.3525 24.2107 50.2245 23.656C49.4138 24.7653 48.0592 25.32 46.1605 25.32C44.3685 25.32 42.9072 24.904 41.7765 24.072C40.6672 23.24 40.1125 22.0347 40.1125 20.456C40.1125 18.92 40.6672 17.7253 41.7765 16.872C42.8858 15.9973 44.2512 15.56 45.8725 15.56C47.1312 15.56 48.2085 15.8267 49.1045 16.36V16.264C48.8912 14.152 48.6458 12.7227 48.3685 11.976C48.1125 11.2293 47.6005 10.856 46.8325 10.856C46.3418 10.856 45.9472 11.08 45.6485 11.528C45.3498 11.976 45.1258 12.4667 44.9765 13C44.8485 13.5333 44.5925 14.024 44.2085 14.472C43.8245 14.92 43.3125 15.144 42.6725 15.144C42.0112 15.144 41.4672 14.952 41.0405 14.568C40.6352 14.184 40.4325 13.6827 40.4325 13.064C40.4325 11.8267 41.0512 10.8987 42.2885 10.28C43.5258 9.64 45.0405 9.32 46.8325 9.32C48.9658 9.32 50.7258 9.90667 52.1125 11.08C53.5205 12.232 54.3525 13.8 54.6085 15.784L55.3125 21.512ZM47.9205 23.688C48.4112 23.688 48.8058 23.4533 49.1045 22.984C49.4245 22.5147 49.5845 21.9813 49.5845 21.384L49.4565 19.912C49.2432 18.1413 48.5818 17.256 47.4725 17.256C46.9818 17.256 46.5872 17.4587 46.2885 17.864C45.9898 18.248 45.8405 18.7707 45.8405 19.432C45.8405 20.6267 46.0218 21.64 46.3845 22.472C46.7685 23.2827 47.2805 23.688 47.9205 23.688ZM58.3455 25C57.8548 25 57.6095 24.7973 57.6095 24.392V24.264C57.6095 24.008 57.8122 23.624 58.2175 23.112C58.6442 22.5787 58.8575 22.0453 58.8575 21.512V6.888C58.8575 6.33333 58.6442 5.8 58.2175 5.288C57.8122 4.75467 57.6095 4.38133 57.6095 4.168V4.04C57.6095 3.80533 57.8442 3.56 58.3135 3.304L63.1455 0.935999C63.5935 0.743999 63.9455 0.733332 64.2015 0.903999C64.4788 1.05333 64.6175 1.288 64.6175 1.608V21.512C64.6175 22.0453 64.8522 22.5787 65.3215 23.112C65.7908 23.624 66.0255 24.008 66.0255 24.264V24.392C66.0255 24.7973 65.7695 25 65.2575 25H58.3455Z" fill="#98A2B3"/>
</svg>
