<svg width="508" height="340" viewBox="0 0 508 340" fill="none" xmlns="http://www.w3.org/2000/svg">
<g filter="url(#filter0_d_291_852)">
<rect x="36" y="12" width="432" height="260" rx="12" fill="white"/>
<path d="M57.233 47V36.8182H60.6733C61.4721 36.8182 62.125 36.9624 62.6321 37.2507C63.1425 37.5357 63.5204 37.9219 63.7656 38.4091C64.0109 38.8963 64.1335 39.4399 64.1335 40.0398C64.1335 40.6397 64.0109 41.1849 63.7656 41.6754C63.5237 42.166 63.1491 42.5571 62.642 42.8487C62.1349 43.1371 61.4853 43.2812 60.6932 43.2812H58.2273V42.1875H60.6534C61.2003 42.1875 61.6394 42.093 61.9709 41.9041C62.3023 41.7152 62.5426 41.46 62.6918 41.1385C62.8442 40.8137 62.9205 40.4474 62.9205 40.0398C62.9205 39.6321 62.8442 39.2675 62.6918 38.946C62.5426 38.6245 62.3007 38.3726 61.9659 38.1903C61.6312 38.0047 61.187 37.9119 60.6335 37.9119H58.4659V47H57.233ZM69.0803 47.1591C68.3445 47.1591 67.7098 46.9967 67.1761 46.6719C66.6458 46.3438 66.2365 45.8864 65.9482 45.2997C65.6631 44.7098 65.5206 44.0237 65.5206 43.2415C65.5206 42.4593 65.6631 41.7699 65.9482 41.1733C66.2365 40.5734 66.6375 40.1061 67.1513 39.7713C67.6683 39.4332 68.2715 39.2642 68.9609 39.2642C69.3587 39.2642 69.7514 39.3305 70.1392 39.4631C70.527 39.5956 70.88 39.8111 71.1982 40.1094C71.5163 40.4044 71.7699 40.7955 71.9588 41.2827C72.1477 41.7699 72.2422 42.3698 72.2422 43.0824V43.5795H66.3558V42.5653H71.049C71.049 42.1345 70.9628 41.75 70.7905 41.4119C70.6214 41.0739 70.3795 40.8071 70.0646 40.6115C69.7531 40.416 69.3852 40.3182 68.9609 40.3182C68.4936 40.3182 68.0893 40.4342 67.7479 40.6662C67.4098 40.8949 67.1496 41.1932 66.9673 41.5611C66.785 41.929 66.6939 42.3234 66.6939 42.7443V43.4205C66.6939 43.9972 66.7933 44.486 66.9922 44.8871C67.1944 45.2848 67.4744 45.5881 67.8324 45.7969C68.1903 46.0024 68.6063 46.1051 69.0803 46.1051C69.3885 46.1051 69.6669 46.062 69.9155 45.9759C70.1674 45.8864 70.3845 45.7538 70.5668 45.5781C70.7491 45.3991 70.8899 45.1771 70.9893 44.9119L72.1229 45.2301C72.0036 45.6146 71.803 45.9527 71.5213 46.2443C71.2396 46.5327 70.8916 46.758 70.4773 46.9205C70.063 47.0795 69.5973 47.1591 69.0803 47.1591ZM77.1293 47.1591C76.4399 47.1591 75.835 46.995 75.3146 46.6669C74.7976 46.3388 74.3932 45.8797 74.1016 45.2898C73.8132 44.6998 73.669 44.0104 73.669 43.2216C73.669 42.4261 73.8132 41.7318 74.1016 41.1385C74.3932 40.5452 74.7976 40.0845 75.3146 39.7564C75.835 39.4283 76.4399 39.2642 77.1293 39.2642C77.8187 39.2642 78.4219 39.4283 78.9389 39.7564C79.4593 40.0845 79.8636 40.5452 80.152 41.1385C80.4437 41.7318 80.5895 42.4261 80.5895 43.2216C80.5895 44.0104 80.4437 44.6998 80.152 45.2898C79.8636 45.8797 79.4593 46.3388 78.9389 46.6669C78.4219 46.995 77.8187 47.1591 77.1293 47.1591ZM77.1293 46.1051C77.6529 46.1051 78.0838 45.9709 78.4219 45.7024C78.7599 45.4339 79.0102 45.081 79.1726 44.6435C79.335 44.206 79.4162 43.732 79.4162 43.2216C79.4162 42.7112 79.335 42.2356 79.1726 41.7947C79.0102 41.3539 78.7599 40.9976 78.4219 40.7259C78.0838 40.4541 77.6529 40.3182 77.1293 40.3182C76.6056 40.3182 76.1747 40.4541 75.8366 40.7259C75.4986 40.9976 75.2483 41.3539 75.0859 41.7947C74.9235 42.2356 74.8423 42.7112 74.8423 43.2216C74.8423 43.732 74.9235 44.206 75.0859 44.6435C75.2483 45.081 75.4986 45.4339 75.8366 45.7024C76.1747 45.9709 76.6056 46.1051 77.1293 46.1051ZM82.3805 49.8636V39.3636H83.514V40.5767H83.6532C83.7394 40.4441 83.8587 40.2751 84.0112 40.0696C84.167 39.8608 84.389 39.6752 84.6774 39.5128C84.969 39.3471 85.3635 39.2642 85.8606 39.2642C86.5036 39.2642 87.0704 39.425 87.5609 39.7464C88.0514 40.0679 88.4342 40.5237 88.7093 41.1136C88.9844 41.7036 89.122 42.3996 89.122 43.2017C89.122 44.0104 88.9844 44.7114 88.7093 45.3047C88.4342 45.8946 88.0531 46.352 87.5659 46.6768C87.0787 46.9983 86.5169 47.1591 85.8805 47.1591C85.39 47.1591 84.9972 47.0779 84.7022 46.9155C84.4073 46.7498 84.1802 46.5625 84.0211 46.3537C83.862 46.1416 83.7394 45.9659 83.6532 45.8267H83.5538V49.8636H82.3805ZM83.5339 43.1818C83.5339 43.7585 83.6184 44.2673 83.7875 44.7081C83.9565 45.1456 84.2034 45.4886 84.5282 45.7372C84.853 45.9825 85.2508 46.1051 85.7214 46.1051C86.2119 46.1051 86.6213 45.9759 86.9494 45.7173C87.2808 45.4555 87.5294 45.1042 87.6951 44.6634C87.8642 44.2192 87.9487 43.7254 87.9487 43.1818C87.9487 42.6449 87.8658 42.161 87.7001 41.7301C87.5377 41.2959 87.2908 40.9529 86.9593 40.701C86.6312 40.4458 86.2186 40.3182 85.7214 40.3182C85.2441 40.3182 84.8431 40.4392 84.5183 40.6811C84.1935 40.9197 83.9482 41.2545 83.7825 41.6854C83.6168 42.1129 83.5339 42.6117 83.5339 43.1818ZM92.085 36.8182V47H90.9118V36.8182H92.085ZM97.4357 47.1591C96.6999 47.1591 96.0652 46.9967 95.5316 46.6719C95.0013 46.3438 94.592 45.8864 94.3036 45.2997C94.0186 44.7098 93.8761 44.0237 93.8761 43.2415C93.8761 42.4593 94.0186 41.7699 94.3036 41.1733C94.592 40.5734 94.993 40.1061 95.5067 39.7713C96.0238 39.4332 96.627 39.2642 97.3164 39.2642C97.7141 39.2642 98.1069 39.3305 98.4947 39.4631C98.8825 39.5956 99.2354 39.8111 99.5536 40.1094C99.8718 40.4044 100.125 40.7955 100.314 41.2827C100.503 41.7699 100.598 42.3698 100.598 43.0824V43.5795H94.7113V42.5653H99.4045C99.4045 42.1345 99.3183 41.75 99.146 41.4119C98.9769 41.0739 98.735 40.8071 98.4201 40.6115C98.1085 40.416 97.7406 40.3182 97.3164 40.3182C96.8491 40.3182 96.4447 40.4342 96.1033 40.6662C95.7653 40.8949 95.5051 41.1932 95.3228 41.5611C95.1405 41.929 95.0494 42.3234 95.0494 42.7443V43.4205C95.0494 43.9972 95.1488 44.486 95.3477 44.8871C95.5498 45.2848 95.8299 45.5881 96.1879 45.7969C96.5458 46.0024 96.9618 46.1051 97.4357 46.1051C97.744 46.1051 98.0224 46.062 98.271 45.9759C98.5228 45.8864 98.7399 45.7538 98.9222 45.5781C99.1045 45.3991 99.2454 45.1771 99.3448 44.9119L100.478 45.2301C100.359 45.6146 100.158 45.9527 99.8768 46.2443C99.5951 46.5327 99.247 46.758 98.8327 46.9205C98.4184 47.0795 97.9528 47.1591 97.4357 47.1591ZM106.479 47V36.8182H107.652V40.5767H107.752C107.838 40.4441 107.957 40.2751 108.11 40.0696C108.266 39.8608 108.488 39.6752 108.776 39.5128C109.068 39.3471 109.462 39.2642 109.959 39.2642C110.602 39.2642 111.169 39.425 111.659 39.7464C112.15 40.0679 112.533 40.5237 112.808 41.1136C113.083 41.7036 113.221 42.3996 113.221 43.2017C113.221 44.0104 113.083 44.7114 112.808 45.3047C112.533 45.8946 112.152 46.352 111.664 46.6768C111.177 46.9983 110.615 47.1591 109.979 47.1591C109.489 47.1591 109.096 47.0779 108.801 46.9155C108.506 46.7498 108.279 46.5625 108.12 46.3537C107.961 46.1416 107.838 45.9659 107.752 45.8267H107.613V47H106.479ZM107.632 43.1818C107.632 43.7585 107.717 44.2673 107.886 44.7081C108.055 45.1456 108.302 45.4886 108.627 45.7372C108.952 45.9825 109.349 46.1051 109.82 46.1051C110.31 46.1051 110.72 45.9759 111.048 45.7173C111.379 45.4555 111.628 45.1042 111.794 44.6634C111.963 44.2192 112.047 43.7254 112.047 43.1818C112.047 42.6449 111.964 42.161 111.799 41.7301C111.636 41.2959 111.389 40.9529 111.058 40.701C110.73 40.4458 110.317 40.3182 109.82 40.3182C109.343 40.3182 108.942 40.4392 108.617 40.6811C108.292 40.9197 108.047 41.2545 107.881 41.6854C107.715 42.1129 107.632 42.6117 107.632 43.1818ZM118.217 47.1591C117.481 47.1591 116.846 46.9967 116.313 46.6719C115.783 46.3438 115.373 45.8864 115.085 45.2997C114.8 44.7098 114.657 44.0237 114.657 43.2415C114.657 42.4593 114.8 41.7699 115.085 41.1733C115.373 40.5734 115.774 40.1061 116.288 39.7713C116.805 39.4332 117.408 39.2642 118.098 39.2642C118.495 39.2642 118.888 39.3305 119.276 39.4631C119.664 39.5956 120.017 39.8111 120.335 40.1094C120.653 40.4044 120.907 40.7955 121.096 41.2827C121.284 41.7699 121.379 42.3698 121.379 43.0824V43.5795H115.493V42.5653H120.186C120.186 42.1345 120.1 41.75 119.927 41.4119C119.758 41.0739 119.516 40.8071 119.201 40.6115C118.89 40.416 118.522 40.3182 118.098 40.3182C117.63 40.3182 117.226 40.4342 116.885 40.6662C116.547 40.8949 116.286 41.1932 116.104 41.5611C115.922 41.929 115.831 42.3234 115.831 42.7443V43.4205C115.831 43.9972 115.93 44.486 116.129 44.8871C116.331 45.2848 116.611 45.5881 116.969 45.7969C117.327 46.0024 117.743 46.1051 118.217 46.1051C118.525 46.1051 118.804 46.062 119.052 45.9759C119.304 45.8864 119.521 45.7538 119.703 45.5781C119.886 45.3991 120.027 45.1771 120.126 44.9119L121.26 45.2301C121.14 45.6146 120.94 45.9527 120.658 46.2443C120.376 46.5327 120.028 46.758 119.614 46.9205C119.2 47.0795 118.734 47.1591 118.217 47.1591ZM124.337 42.4062V47H123.164V39.3636H124.297V40.5568H124.397C124.576 40.169 124.847 39.8575 125.212 39.6222C125.577 39.3835 126.047 39.2642 126.624 39.2642C127.141 39.2642 127.593 39.3703 127.981 39.5824C128.369 39.7912 128.671 40.1094 128.886 40.5369C129.101 40.9612 129.209 41.4981 129.209 42.1477V47H128.036V42.2273C128.036 41.6274 127.88 41.16 127.569 40.8253C127.257 40.4872 126.829 40.3182 126.286 40.3182C125.911 40.3182 125.577 40.3994 125.282 40.5618C124.99 40.7242 124.76 40.9612 124.591 41.2727C124.422 41.5843 124.337 41.9621 124.337 42.4062ZM134.555 47.1591C133.819 47.1591 133.184 46.9967 132.651 46.6719C132.12 46.3438 131.711 45.8864 131.423 45.2997C131.138 44.7098 130.995 44.0237 130.995 43.2415C130.995 42.4593 131.138 41.7699 131.423 41.1733C131.711 40.5734 132.112 40.1061 132.626 39.7713C133.143 39.4332 133.746 39.2642 134.436 39.2642C134.833 39.2642 135.226 39.3305 135.614 39.4631C136.002 39.5956 136.355 39.8111 136.673 40.1094C136.991 40.4044 137.244 40.7955 137.433 41.2827C137.622 41.7699 137.717 42.3698 137.717 43.0824V43.5795H131.83V42.5653H136.524C136.524 42.1345 136.437 41.75 136.265 41.4119C136.096 41.0739 135.854 40.8071 135.539 40.6115C135.228 40.416 134.86 40.3182 134.436 40.3182C133.968 40.3182 133.564 40.4342 133.222 40.6662C132.884 40.8949 132.624 41.1932 132.442 41.5611C132.26 41.929 132.169 42.3234 132.169 42.7443V43.4205C132.169 43.9972 132.268 44.486 132.467 44.8871C132.669 45.2848 132.949 45.5881 133.307 45.7969C133.665 46.0024 134.081 46.1051 134.555 46.1051C134.863 46.1051 135.142 46.062 135.39 45.9759C135.642 45.8864 135.859 45.7538 136.041 45.5781C136.224 45.3991 136.365 45.1771 136.464 44.9119L137.597 45.2301C137.478 45.6146 137.278 45.9527 136.996 46.2443C136.714 46.5327 136.366 46.758 135.952 46.9205C135.538 47.0795 135.072 47.1591 134.555 47.1591ZM142.902 39.3636V40.358H138.786V39.3636H142.902ZM140.019 47V38.3097C140.019 37.8722 140.121 37.5076 140.327 37.2159C140.532 36.9242 140.799 36.7055 141.127 36.5597C141.455 36.4138 141.802 36.3409 142.166 36.3409C142.455 36.3409 142.69 36.3641 142.872 36.4105C143.055 36.4569 143.191 36.5 143.28 36.5398L142.942 37.554C142.882 37.5341 142.799 37.5092 142.693 37.4794C142.591 37.4496 142.455 37.4347 142.286 37.4347C141.898 37.4347 141.618 37.5324 141.445 37.728C141.276 37.9235 141.192 38.2102 141.192 38.5881V47H140.019ZM144.547 47V39.3636H145.72V47H144.547ZM145.143 38.0909C144.914 38.0909 144.717 38.013 144.551 37.8572C144.389 37.7015 144.308 37.5142 144.308 37.2955C144.308 37.0767 144.389 36.8894 144.551 36.7337C144.717 36.5779 144.914 36.5 145.143 36.5C145.372 36.5 145.567 36.5779 145.73 36.7337C145.895 36.8894 145.978 37.0767 145.978 37.2955C145.978 37.5142 145.895 37.7015 145.73 37.8572C145.567 38.013 145.372 38.0909 145.143 38.0909ZM151.19 39.3636V40.358H147.232V39.3636H151.19ZM148.386 37.5341H149.559V44.8125C149.559 45.1439 149.607 45.3925 149.703 45.5582C149.803 45.7206 149.929 45.83 150.081 45.8864C150.237 45.9394 150.401 45.9659 150.573 45.9659C150.703 45.9659 150.809 45.9593 150.892 45.946C150.974 45.9295 151.041 45.9162 151.09 45.9062L151.329 46.9602C151.249 46.9901 151.138 47.0199 150.996 47.0497C150.853 47.0829 150.673 47.0994 150.454 47.0994C150.123 47.0994 149.798 47.0282 149.48 46.8857C149.165 46.7431 148.903 46.526 148.694 46.2344C148.489 45.9427 148.386 45.5748 148.386 45.1307V37.5341ZM160.293 39.3636V40.358H156.176V39.3636H160.293ZM157.409 47V38.3097C157.409 37.8722 157.512 37.5076 157.718 37.2159C157.923 36.9242 158.19 36.7055 158.518 36.5597C158.846 36.4138 159.192 36.3409 159.557 36.3409C159.845 36.3409 160.081 36.3641 160.263 36.4105C160.445 36.4569 160.581 36.5 160.671 36.5398L160.333 37.554C160.273 37.5341 160.19 37.5092 160.084 37.4794C159.981 37.4496 159.845 37.4347 159.676 37.4347C159.289 37.4347 159.008 37.5324 158.836 37.728C158.667 37.9235 158.583 38.2102 158.583 38.5881V47H157.409ZM161.937 47V39.3636H163.071V40.517H163.15C163.289 40.1392 163.541 39.8326 163.906 39.5973C164.27 39.362 164.681 39.2443 165.139 39.2443C165.225 39.2443 165.333 39.246 165.462 39.2493C165.591 39.2526 165.689 39.2576 165.755 39.2642V40.4574C165.716 40.4474 165.624 40.4325 165.482 40.4126C165.343 40.3894 165.195 40.3778 165.039 40.3778C164.668 40.3778 164.337 40.4557 164.045 40.6115C163.757 40.764 163.528 40.9761 163.359 41.2479C163.193 41.5163 163.11 41.8229 163.11 42.1676V47H161.937ZM170.016 47.1591C169.327 47.1591 168.722 46.995 168.201 46.6669C167.684 46.3388 167.28 45.8797 166.988 45.2898C166.7 44.6998 166.556 44.0104 166.556 43.2216C166.556 42.4261 166.7 41.7318 166.988 41.1385C167.28 40.5452 167.684 40.0845 168.201 39.7564C168.722 39.4283 169.327 39.2642 170.016 39.2642C170.705 39.2642 171.309 39.4283 171.826 39.7564C172.346 40.0845 172.75 40.5452 173.039 41.1385C173.33 41.7318 173.476 42.4261 173.476 43.2216C173.476 44.0104 173.33 44.6998 173.039 45.2898C172.75 45.8797 172.346 46.3388 171.826 46.6669C171.309 46.995 170.705 47.1591 170.016 47.1591ZM170.016 46.1051C170.54 46.1051 170.971 45.9709 171.309 45.7024C171.647 45.4339 171.897 45.081 172.059 44.6435C172.222 44.206 172.303 43.732 172.303 43.2216C172.303 42.7112 172.222 42.2356 172.059 41.7947C171.897 41.3539 171.647 40.9976 171.309 40.7259C170.971 40.4541 170.54 40.3182 170.016 40.3182C169.492 40.3182 169.061 40.4541 168.723 40.7259C168.385 40.9976 168.135 41.3539 167.973 41.7947C167.81 42.2356 167.729 42.7112 167.729 43.2216C167.729 43.732 167.81 44.206 167.973 44.6435C168.135 45.081 168.385 45.4339 168.723 45.7024C169.061 45.9709 169.492 46.1051 170.016 46.1051ZM175.267 47V39.3636H176.401V40.5568H176.5C176.659 40.1491 176.916 39.8326 177.271 39.6072C177.625 39.3786 178.051 39.2642 178.548 39.2642C179.052 39.2642 179.472 39.3786 179.806 39.6072C180.144 39.8326 180.408 40.1491 180.597 40.5568H180.676C180.872 40.1624 181.165 39.8492 181.556 39.6172C181.947 39.3819 182.416 39.2642 182.963 39.2642C183.646 39.2642 184.204 39.478 184.639 39.9055C185.073 40.3298 185.29 40.991 185.29 41.8892V47H184.117V41.8892C184.117 41.3258 183.963 40.9231 183.654 40.6811C183.346 40.4392 182.983 40.3182 182.566 40.3182C182.029 40.3182 181.613 40.4806 181.318 40.8054C181.023 41.1269 180.875 41.5346 180.875 42.0284V47H179.682V41.7699C179.682 41.3357 179.541 40.986 179.259 40.7209C178.978 40.4524 178.615 40.3182 178.171 40.3182C177.866 40.3182 177.581 40.3994 177.316 40.5618C177.054 40.7242 176.842 40.9496 176.679 41.2379C176.52 41.523 176.441 41.8527 176.441 42.2273V47H175.267ZM191.373 47V39.3636H192.546V47H191.373ZM191.969 38.0909C191.741 38.0909 191.543 38.013 191.378 37.8572C191.215 37.7015 191.134 37.5142 191.134 37.2955C191.134 37.0767 191.215 36.8894 191.378 36.7337C191.543 36.5779 191.741 36.5 191.969 36.5C192.198 36.5 192.394 36.5779 192.556 36.7337C192.722 36.8894 192.805 37.0767 192.805 37.2955C192.805 37.5142 192.722 37.7015 192.556 37.8572C192.394 38.013 192.198 38.0909 191.969 38.0909ZM198.016 39.3636V40.358H194.059V39.3636H198.016ZM195.212 37.5341H196.385V44.8125C196.385 45.1439 196.433 45.3925 196.529 45.5582C196.629 45.7206 196.755 45.83 196.907 45.8864C197.063 45.9394 197.227 45.9659 197.4 45.9659C197.529 45.9659 197.635 45.9593 197.718 45.946C197.801 45.9295 197.867 45.9162 197.917 45.9062L198.155 46.9602C198.076 46.9901 197.965 47.0199 197.822 47.0497C197.68 47.0829 197.499 47.0994 197.28 47.0994C196.949 47.0994 196.624 47.0282 196.306 46.8857C195.991 46.7431 195.729 46.526 195.52 46.2344C195.315 45.9427 195.212 45.5748 195.212 45.1307V37.5341Z" fill="#101828"/>
<line x1="56.5" y1="63" x2="447.5" y2="63" stroke="#F2F4F7" stroke-linecap="round"/>
<line x1="56.5" y1="97.5" x2="447.5" y2="97.5" stroke="#F2F4F7" stroke-linecap="round"/>
<line x1="56.5" y1="129.5" x2="447.5" y2="129.5" stroke="#F2F4F7" stroke-linecap="round"/>
<line x1="56.5" y1="161.5" x2="447.5" y2="161.5" stroke="#F2F4F7" stroke-linecap="round"/>
<line x1="56.5" y1="193.5" x2="447.5" y2="193.5" stroke="#F2F4F7" stroke-linecap="round"/>
<line x1="56.5" y1="225.5" x2="447.5" y2="225.5" stroke="#F2F4F7" stroke-linecap="round"/>
<path d="M69.1009 238.273H70.1577V244.511C70.1577 245.068 70.0554 245.541 69.8509 245.93C69.6463 246.32 69.358 246.615 68.9858 246.817C68.6136 247.018 68.1747 247.119 67.669 247.119C67.1918 247.119 66.767 247.033 66.3949 246.859C66.0227 246.683 65.7301 246.433 65.517 246.109C65.304 245.786 65.1974 245.401 65.1974 244.955H66.2372C66.2372 245.202 66.2983 245.418 66.4205 245.602C66.5455 245.784 66.7159 245.926 66.9318 246.028C67.1477 246.131 67.3935 246.182 67.669 246.182C67.973 246.182 68.2315 246.118 68.4446 245.99C68.6577 245.862 68.8196 245.675 68.9304 245.428C69.044 245.178 69.1009 244.872 69.1009 244.511V238.273ZM74.0653 247.153C73.6506 247.153 73.2741 247.075 72.9361 246.919C72.598 246.76 72.3295 246.531 72.1307 246.233C71.9318 245.932 71.8324 245.568 71.8324 245.142C71.8324 244.767 71.9063 244.463 72.054 244.23C72.2017 243.994 72.3991 243.81 72.6463 243.676C72.8935 243.543 73.1662 243.443 73.4645 243.378C73.7656 243.31 74.0682 243.256 74.3722 243.216C74.7699 243.165 75.0923 243.126 75.3395 243.101C75.5895 243.072 75.7713 243.026 75.8849 242.96C76.0014 242.895 76.0597 242.781 76.0597 242.619V242.585C76.0597 242.165 75.9446 241.838 75.7145 241.605C75.4872 241.372 75.142 241.256 74.679 241.256C74.1989 241.256 73.8224 241.361 73.5497 241.571C73.277 241.781 73.0852 242.006 72.9744 242.244L72.0199 241.903C72.1903 241.506 72.4176 241.196 72.7017 240.974C72.9886 240.75 73.3011 240.594 73.6392 240.506C73.9801 240.415 74.3153 240.369 74.6449 240.369C74.8551 240.369 75.0966 240.395 75.3693 240.446C75.6449 240.494 75.9105 240.595 76.1662 240.749C76.4247 240.902 76.6392 241.134 76.8097 241.443C76.9801 241.753 77.0653 242.168 77.0653 242.688V247H76.0597V246.114H76.0085C75.9403 246.256 75.8267 246.408 75.6676 246.57C75.5085 246.732 75.2969 246.869 75.0327 246.983C74.7685 247.097 74.446 247.153 74.0653 247.153ZM74.2188 246.25C74.6165 246.25 74.9517 246.172 75.2244 246.016C75.5 245.859 75.7074 245.658 75.8466 245.411C75.9886 245.163 76.0597 244.903 76.0597 244.631V243.71C76.017 243.761 75.9233 243.808 75.7784 243.851C75.6364 243.891 75.4716 243.926 75.2841 243.957C75.0994 243.986 74.919 244.011 74.7429 244.034C74.5696 244.054 74.429 244.071 74.321 244.085C74.0597 244.119 73.8153 244.175 73.5881 244.251C73.3636 244.325 73.1818 244.437 73.0426 244.588C72.9063 244.736 72.8381 244.937 72.8381 245.193C72.8381 245.543 72.9673 245.807 73.2259 245.986C73.4872 246.162 73.8182 246.25 74.2188 246.25ZM79.9066 243.062V247H78.9009V240.455H79.8725V241.477H79.9577C80.1112 241.145 80.3441 240.878 80.6566 240.676C80.9691 240.472 81.3725 240.369 81.8668 240.369C82.31 240.369 82.6978 240.46 83.0302 240.642C83.3626 240.821 83.6211 241.094 83.8058 241.46C83.9904 241.824 84.0827 242.284 84.0827 242.841V247H83.0771V242.909C83.0771 242.395 82.9435 241.994 82.6765 241.707C82.4094 241.418 82.043 241.273 81.5771 241.273C81.256 241.273 80.9691 241.342 80.7163 241.482C80.4663 241.621 80.2688 241.824 80.1239 242.091C79.979 242.358 79.9066 242.682 79.9066 243.062Z" fill="#667085"/>
<path d="M123.488 238.273H124.75L127.716 245.517H127.818L130.784 238.273H132.045V247H131.057V240.369H130.971L128.244 247H127.29L124.562 240.369H124.477V247H123.488V238.273ZM135.954 247.153C135.539 247.153 135.163 247.075 134.825 246.919C134.487 246.76 134.218 246.531 134.019 246.233C133.82 245.932 133.721 245.568 133.721 245.142C133.721 244.767 133.795 244.463 133.943 244.23C134.09 243.994 134.288 243.81 134.535 243.676C134.782 243.543 135.055 243.443 135.353 243.378C135.654 243.31 135.957 243.256 136.261 243.216C136.659 243.165 136.981 243.126 137.228 243.101C137.478 243.072 137.66 243.026 137.774 242.96C137.89 242.895 137.948 242.781 137.948 242.619V242.585C137.948 242.165 137.833 241.838 137.603 241.605C137.376 241.372 137.031 241.256 136.568 241.256C136.088 241.256 135.711 241.361 135.438 241.571C135.166 241.781 134.974 242.006 134.863 242.244L133.909 241.903C134.079 241.506 134.306 241.196 134.59 240.974C134.877 240.75 135.19 240.594 135.528 240.506C135.869 240.415 136.204 240.369 136.534 240.369C136.744 240.369 136.985 240.395 137.258 240.446C137.534 240.494 137.799 240.595 138.055 240.749C138.313 240.902 138.528 241.134 138.698 241.443C138.869 241.753 138.954 242.168 138.954 242.688V247H137.948V246.114H137.897C137.829 246.256 137.715 246.408 137.556 246.57C137.397 246.732 137.186 246.869 136.921 246.983C136.657 247.097 136.335 247.153 135.954 247.153ZM136.107 246.25C136.505 246.25 136.84 246.172 137.113 246.016C137.389 245.859 137.596 245.658 137.735 245.411C137.877 245.163 137.948 244.903 137.948 244.631V243.71C137.906 243.761 137.812 243.808 137.667 243.851C137.525 243.891 137.36 243.926 137.173 243.957C136.988 243.986 136.808 244.011 136.632 244.034C136.458 244.054 136.318 244.071 136.21 244.085C135.948 244.119 135.704 244.175 135.477 244.251C135.252 244.325 135.07 244.437 134.931 244.588C134.795 244.736 134.727 244.937 134.727 245.193C134.727 245.543 134.856 245.807 135.115 245.986C135.376 246.162 135.707 246.25 136.107 246.25ZM140.79 247V240.455H141.761V241.443H141.829C141.949 241.119 142.165 240.857 142.477 240.655C142.79 240.453 143.142 240.352 143.534 240.352C143.608 240.352 143.7 240.354 143.811 240.357C143.922 240.359 144.006 240.364 144.062 240.369V241.392C144.028 241.384 143.95 241.371 143.828 241.354C143.709 241.334 143.582 241.324 143.449 241.324C143.131 241.324 142.846 241.391 142.596 241.524C142.349 241.655 142.153 241.837 142.008 242.07C141.866 242.3 141.795 242.562 141.795 242.858V247H140.79Z" fill="#667085"/>
<path d="M182.84 238.273H184.101L187.067 245.517H187.17L190.135 238.273H191.397V247H190.408V240.369H190.323L187.596 247H186.641L183.914 240.369H183.829V247H182.84V238.273ZM195.306 247.153C194.891 247.153 194.514 247.075 194.176 246.919C193.838 246.76 193.57 246.531 193.371 246.233C193.172 245.932 193.073 245.568 193.073 245.142C193.073 244.767 193.146 244.463 193.294 244.23C193.442 243.994 193.639 243.81 193.887 243.676C194.134 243.543 194.406 243.443 194.705 243.378C195.006 243.31 195.308 243.256 195.612 243.216C196.01 243.165 196.333 243.126 196.58 243.101C196.83 243.072 197.012 243.026 197.125 242.96C197.242 242.895 197.3 242.781 197.3 242.619V242.585C197.3 242.165 197.185 241.838 196.955 241.605C196.727 241.372 196.382 241.256 195.919 241.256C195.439 241.256 195.063 241.361 194.79 241.571C194.517 241.781 194.325 242.006 194.215 242.244L193.26 241.903C193.431 241.506 193.658 241.196 193.942 240.974C194.229 240.75 194.541 240.594 194.879 240.506C195.22 240.415 195.556 240.369 195.885 240.369C196.095 240.369 196.337 240.395 196.61 240.446C196.885 240.494 197.151 240.595 197.406 240.749C197.665 240.902 197.879 241.134 198.05 241.443C198.22 241.753 198.306 242.168 198.306 242.688V247H197.3V246.114H197.249C197.181 246.256 197.067 246.408 196.908 246.57C196.749 246.732 196.537 246.869 196.273 246.983C196.009 247.097 195.686 247.153 195.306 247.153ZM195.459 246.25C195.857 246.25 196.192 246.172 196.465 246.016C196.74 245.859 196.948 245.658 197.087 245.411C197.229 245.163 197.3 244.903 197.3 244.631V243.71C197.257 243.761 197.164 243.808 197.019 243.851C196.877 243.891 196.712 243.926 196.524 243.957C196.34 243.986 196.159 244.011 195.983 244.034C195.81 244.054 195.669 244.071 195.561 244.085C195.3 244.119 195.056 244.175 194.828 244.251C194.604 244.325 194.422 244.437 194.283 244.588C194.146 244.736 194.078 244.937 194.078 245.193C194.078 245.543 194.208 245.807 194.466 245.986C194.727 246.162 195.058 246.25 195.459 246.25ZM200.555 249.455C200.384 249.455 200.232 249.44 200.099 249.412C199.965 249.386 199.873 249.361 199.822 249.335L200.077 248.449C200.322 248.511 200.537 248.534 200.725 248.517C200.912 248.5 201.079 248.416 201.224 248.266C201.371 248.118 201.506 247.878 201.628 247.545L201.816 247.034L199.395 240.455H200.486L202.293 245.67H202.361L204.168 240.455H205.259L202.481 247.955C202.356 248.293 202.201 248.572 202.016 248.794C201.831 249.018 201.617 249.185 201.373 249.293C201.131 249.401 200.858 249.455 200.555 249.455Z" fill="#667085"/>
<path d="M248.062 238.273H249.119V244.511C249.119 245.068 249.016 245.541 248.812 245.93C248.607 246.32 248.319 246.615 247.947 246.817C247.575 247.018 247.136 247.119 246.63 247.119C246.153 247.119 245.728 247.033 245.356 246.859C244.984 246.683 244.691 246.433 244.478 246.109C244.265 245.786 244.158 245.401 244.158 244.955H245.198C245.198 245.202 245.259 245.418 245.381 245.602C245.506 245.784 245.677 245.926 245.893 246.028C246.109 246.131 246.354 246.182 246.63 246.182C246.934 246.182 247.192 246.118 247.406 245.99C247.619 245.862 247.781 245.675 247.891 245.428C248.005 245.178 248.062 244.872 248.062 244.511V238.273ZM255.225 244.324V240.455H256.231V247H255.225V245.892H255.157C255.004 246.224 254.765 246.507 254.441 246.74C254.117 246.97 253.708 247.085 253.214 247.085C252.805 247.085 252.441 246.996 252.123 246.817C251.805 246.635 251.555 246.362 251.373 245.999C251.191 245.632 251.1 245.17 251.1 244.614V240.455H252.106V244.545C252.106 245.023 252.239 245.403 252.506 245.688C252.776 245.972 253.12 246.114 253.538 246.114C253.788 246.114 254.042 246.05 254.3 245.922C254.562 245.794 254.781 245.598 254.957 245.334C255.136 245.07 255.225 244.733 255.225 244.324ZM259.078 238.273V247H258.073V238.273H259.078Z" fill="#667085"/>
<path d="M303.214 240.455C303.163 240.023 302.956 239.688 302.592 239.449C302.229 239.21 301.782 239.091 301.254 239.091C300.868 239.091 300.53 239.153 300.24 239.278C299.953 239.403 299.729 239.575 299.567 239.794C299.407 240.013 299.328 240.261 299.328 240.54C299.328 240.773 299.383 240.973 299.494 241.141C299.608 241.305 299.753 241.443 299.929 241.554C300.105 241.662 300.29 241.751 300.483 241.822C300.676 241.891 300.854 241.946 301.015 241.989L301.902 242.227C302.129 242.287 302.382 242.369 302.66 242.474C302.942 242.58 303.21 242.723 303.466 242.905C303.724 243.084 303.937 243.314 304.105 243.595C304.273 243.876 304.356 244.222 304.356 244.631C304.356 245.102 304.233 245.528 303.986 245.909C303.741 246.29 303.383 246.592 302.912 246.817C302.443 247.041 301.873 247.153 301.203 247.153C300.578 247.153 300.037 247.053 299.579 246.851C299.125 246.649 298.767 246.368 298.506 246.007C298.247 245.646 298.101 245.227 298.067 244.75H299.157C299.186 245.08 299.297 245.352 299.49 245.568C299.686 245.781 299.933 245.94 300.231 246.045C300.532 246.148 300.856 246.199 301.203 246.199C301.606 246.199 301.969 246.134 302.29 246.003C302.611 245.869 302.865 245.685 303.052 245.449C303.24 245.21 303.334 244.932 303.334 244.614C303.334 244.324 303.253 244.088 303.091 243.906C302.929 243.724 302.716 243.577 302.452 243.463C302.187 243.349 301.902 243.25 301.595 243.165L300.521 242.858C299.839 242.662 299.3 242.382 298.902 242.018C298.504 241.655 298.305 241.179 298.305 240.591C298.305 240.102 298.437 239.676 298.702 239.312C298.969 238.946 299.327 238.662 299.775 238.46C300.227 238.256 300.731 238.153 301.288 238.153C301.851 238.153 302.351 238.254 302.788 238.456C303.226 238.655 303.572 238.928 303.828 239.274C304.086 239.621 304.223 240.014 304.237 240.455H303.214ZM308.702 247.136C308.071 247.136 307.527 246.997 307.07 246.719C306.615 246.438 306.264 246.045 306.017 245.543C305.773 245.037 305.651 244.449 305.651 243.778C305.651 243.108 305.773 242.517 306.017 242.006C306.264 241.491 306.608 241.091 307.048 240.804C307.492 240.514 308.009 240.369 308.6 240.369C308.941 240.369 309.277 240.426 309.61 240.54C309.942 240.653 310.244 240.838 310.517 241.094C310.79 241.347 311.007 241.682 311.169 242.099C311.331 242.517 311.412 243.031 311.412 243.642V244.068H306.367V243.199H310.389C310.389 242.83 310.316 242.5 310.168 242.21C310.023 241.92 309.816 241.692 309.546 241.524C309.279 241.357 308.963 241.273 308.6 241.273C308.199 241.273 307.852 241.372 307.56 241.571C307.27 241.767 307.047 242.023 306.891 242.338C306.735 242.653 306.656 242.991 306.656 243.352V243.932C306.656 244.426 306.742 244.845 306.912 245.189C307.085 245.53 307.325 245.79 307.632 245.969C307.939 246.145 308.296 246.233 308.702 246.233C308.966 246.233 309.205 246.196 309.418 246.122C309.634 246.045 309.82 245.932 309.976 245.781C310.132 245.628 310.253 245.437 310.338 245.21L311.31 245.483C311.208 245.812 311.036 246.102 310.794 246.352C310.553 246.599 310.254 246.793 309.899 246.932C309.544 247.068 309.145 247.136 308.702 247.136ZM312.942 249.455V240.455H313.914V241.494H314.033C314.107 241.381 314.209 241.236 314.34 241.06C314.473 240.881 314.664 240.722 314.911 240.582C315.161 240.44 315.499 240.369 315.925 240.369C316.476 240.369 316.962 240.507 317.382 240.783C317.803 241.058 318.131 241.449 318.367 241.955C318.602 242.46 318.72 243.057 318.72 243.744C318.72 244.438 318.602 245.038 318.367 245.547C318.131 246.053 317.804 246.445 317.387 246.723C316.969 246.999 316.487 247.136 315.942 247.136C315.521 247.136 315.185 247.067 314.932 246.928C314.679 246.786 314.485 246.625 314.348 246.446C314.212 246.264 314.107 246.114 314.033 245.994H313.948V249.455H312.942ZM313.931 243.727C313.931 244.222 314.003 244.658 314.148 245.036C314.293 245.411 314.504 245.705 314.783 245.918C315.061 246.128 315.402 246.233 315.806 246.233C316.226 246.233 316.577 246.122 316.858 245.901C317.142 245.676 317.355 245.375 317.497 244.997C317.642 244.616 317.715 244.193 317.715 243.727C317.715 243.267 317.644 242.852 317.502 242.483C317.362 242.111 317.151 241.817 316.867 241.601C316.585 241.382 316.232 241.273 315.806 241.273C315.396 241.273 315.053 241.376 314.774 241.584C314.496 241.788 314.286 242.075 314.144 242.445C314.002 242.811 313.931 243.239 313.931 243.727Z" fill="#667085"/>
<path d="M365.003 238.273V247H363.98L359.224 240.148H359.139V247H358.082V238.273H359.105L363.878 245.142H363.963V238.273H365.003ZM369.64 247.136C369.049 247.136 368.531 246.996 368.085 246.714C367.642 246.433 367.295 246.04 367.045 245.534C366.798 245.028 366.674 244.437 366.674 243.761C366.674 243.08 366.798 242.484 367.045 241.976C367.295 241.467 367.642 241.072 368.085 240.791C368.531 240.51 369.049 240.369 369.64 240.369C370.231 240.369 370.748 240.51 371.191 240.791C371.637 241.072 371.984 241.467 372.231 241.976C372.481 242.484 372.606 243.08 372.606 243.761C372.606 244.437 372.481 245.028 372.231 245.534C371.984 246.04 371.637 246.433 371.191 246.714C370.748 246.996 370.231 247.136 369.64 247.136ZM369.64 246.233C370.089 246.233 370.458 246.118 370.748 245.888C371.038 245.658 371.252 245.355 371.392 244.98C371.531 244.605 371.6 244.199 371.6 243.761C371.6 243.324 371.531 242.916 371.392 242.538C371.252 242.161 371.038 241.855 370.748 241.622C370.458 241.389 370.089 241.273 369.64 241.273C369.191 241.273 368.822 241.389 368.532 241.622C368.242 241.855 368.028 242.161 367.889 242.538C367.749 242.916 367.68 243.324 367.68 243.761C367.68 244.199 367.749 244.605 367.889 244.98C368.028 245.355 368.242 245.658 368.532 245.888C368.822 246.118 369.191 246.233 369.64 246.233ZM379.259 240.455L376.839 247H375.816L373.395 240.455H374.486L376.293 245.67H376.361L378.168 240.455H379.259Z" fill="#667085"/>
<path d="M421.438 247H418.744V238.273H421.557C422.403 238.273 423.128 238.447 423.73 238.797C424.332 239.143 424.794 239.642 425.115 240.293C425.436 240.94 425.597 241.716 425.597 242.619C425.597 243.528 425.435 244.311 425.111 244.967C424.787 245.621 424.315 246.124 423.696 246.476C423.077 246.825 422.324 247 421.438 247ZM419.801 246.062H421.369C422.091 246.062 422.689 245.923 423.163 245.645C423.638 245.366 423.991 244.97 424.224 244.456C424.457 243.942 424.574 243.33 424.574 242.619C424.574 241.915 424.459 241.308 424.229 240.8C423.999 240.288 423.655 239.896 423.197 239.624C422.74 239.348 422.17 239.21 421.489 239.21H419.801V246.062ZM429.977 247.136C429.347 247.136 428.803 246.997 428.345 246.719C427.891 246.438 427.54 246.045 427.293 245.543C427.048 245.037 426.926 244.449 426.926 243.778C426.926 243.108 427.048 242.517 427.293 242.006C427.54 241.491 427.884 241.091 428.324 240.804C428.767 240.514 429.284 240.369 429.875 240.369C430.216 240.369 430.553 240.426 430.885 240.54C431.217 240.653 431.52 240.838 431.793 241.094C432.065 241.347 432.283 241.682 432.445 242.099C432.607 242.517 432.688 243.031 432.688 243.642V244.068H427.642V243.199H431.665C431.665 242.83 431.591 242.5 431.443 242.21C431.298 241.92 431.091 241.692 430.821 241.524C430.554 241.357 430.239 241.273 429.875 241.273C429.474 241.273 429.128 241.372 428.835 241.571C428.545 241.767 428.322 242.023 428.166 242.338C428.01 242.653 427.932 242.991 427.932 243.352V243.932C427.932 244.426 428.017 244.845 428.188 245.189C428.361 245.53 428.601 245.79 428.908 245.969C429.214 246.145 429.571 246.233 429.977 246.233C430.241 246.233 430.48 246.196 430.693 246.122C430.909 246.045 431.095 245.932 431.251 245.781C431.408 245.628 431.528 245.437 431.614 245.21L432.585 245.483C432.483 245.812 432.311 246.102 432.07 246.352C431.828 246.599 431.53 246.793 431.175 246.932C430.82 247.068 430.42 247.136 429.977 247.136ZM436.876 247.136C436.263 247.136 435.734 246.991 435.291 246.702C434.848 246.412 434.507 246.013 434.268 245.504C434.03 244.996 433.911 244.415 433.911 243.761C433.911 243.097 434.033 242.51 434.277 242.001C434.524 241.49 434.868 241.091 435.308 240.804C435.751 240.514 436.268 240.369 436.859 240.369C437.32 240.369 437.734 240.455 438.104 240.625C438.473 240.795 438.776 241.034 439.011 241.341C439.247 241.648 439.393 242.006 439.45 242.415H438.445C438.368 242.116 438.197 241.852 437.933 241.622C437.672 241.389 437.32 241.273 436.876 241.273C436.484 241.273 436.141 241.375 435.845 241.58C435.553 241.781 435.324 242.067 435.159 242.436C434.997 242.803 434.916 243.233 434.916 243.727C434.916 244.233 434.996 244.673 435.155 245.048C435.317 245.423 435.544 245.714 435.837 245.922C436.132 246.129 436.479 246.233 436.876 246.233C437.138 246.233 437.375 246.188 437.588 246.097C437.801 246.006 437.982 245.875 438.129 245.705C438.277 245.534 438.382 245.33 438.445 245.091H439.45C439.393 245.477 439.253 245.825 439.028 246.135C438.807 246.442 438.513 246.686 438.146 246.868C437.783 247.047 437.359 247.136 436.876 247.136Z" fill="#667085"/>
<g style="mix-blend-mode:multiply" opacity="0.1">
<path d="M64.8839 126.122L56 129.031V226H448V93.6875L439.671 98.5199H430.788L426.623 103.045H421.071C419.59 103.799 416.518 105.307 416.074 105.307C415.629 105.307 412.742 106.212 411.354 106.665L399.416 108.022L392.476 109.832L381.371 108.022L375.541 106.665L367.212 109.832H358.606L351.388 106.665C348.612 106.212 342.948 105.307 342.504 105.307C342.06 105.307 338.432 104.402 336.674 103.95H332.232L321.683 105.307L312.521 106.665L308.357 109.832L295.864 111.19L289.479 112.547L282.261 114.809L275.32 120.239H272.266L263.938 118.882L255.887 114.809L248.946 112.547H244.782L237.564 111.19L227.292 112.547H217.575L207.858 114.809L198.142 117.524L190.924 120.239L183.15 121.597L172.601 120.239L164.272 121.597L155.943 122.954L148.17 121.597L137.62 124.764L128.737 122.954L119.853 124.764H111.246L102.085 126.122H92.6459L83.2068 127.479L74.0453 124.764L64.8839 126.122Z" fill="url(#paint0_linear_291_852)"/>
</g>
<path d="M56 129.031L64.8839 126.122L74.0453 124.764L83.2068 127.479L92.6459 126.122H102.085L111.246 124.764H119.853L128.737 122.954L137.62 124.764L148.17 121.597L155.943 122.954L164.272 121.597L172.601 120.239L183.15 121.597L190.924 120.239L198.142 117.524L207.858 114.809L217.575 112.547H227.292L237.564 111.19L244.782 112.547H248.946L255.887 114.809L263.938 118.882L272.266 120.239H275.32L282.261 114.809L289.479 112.547L295.864 111.19L308.357 109.832L312.521 106.665L321.683 105.307L332.232 103.95H336.674C338.432 104.402 342.06 105.307 342.504 105.307C342.948 105.307 348.612 106.212 351.388 106.665L358.606 109.832H367.212L375.541 106.665L381.371 108.022L392.476 109.832L399.416 108.022L411.354 106.665C412.742 106.212 415.629 105.307 416.074 105.307C416.518 105.307 419.59 103.799 421.071 103.045H426.623L430.788 98.5199H439.671L448 93.6875" stroke="#1570EF" stroke-width="2" stroke-linecap="round" stroke-linejoin="round"/>
<path d="M56 164.232L64.8839 162.379L74.0453 161.514L83.2068 163.244L92.6459 162.379H102.085L111.246 161.514H119.853L128.737 160.361L137.62 161.514L148.17 159.497L155.943 160.361L164.272 159.497L172.601 158.632L183.15 159.497L190.924 158.632L198.142 156.903L207.858 155.173L217.575 153.732H227.292L237.564 152.867L244.782 153.732H248.946L255.887 155.173L263.938 157.767L272.266 158.632H275.32L282.261 155.173L289.479 153.732L295.864 152.867L308.357 152.003L312.521 149.985L321.683 149.12L332.232 148.256H336.674C338.432 148.544 342.06 149.12 342.504 149.12C342.948 149.12 348.612 149.697 351.388 149.985L358.606 152.003H367.212L375.541 149.985L381.371 150.85L392.476 152.003L399.416 150.85L411.354 149.985C412.742 149.697 415.629 149.12 416.074 149.12C416.518 149.12 419.59 148.16 421.071 147.679H426.623L430.788 144.797H439.671L448 141.719" stroke="#53B1FD" stroke-width="2" stroke-linecap="round" stroke-linejoin="round"/>
<path d="M56 208.781L64.8839 203.857L74.0453 201.56L83.2068 206.155L92.6459 203.857H102.085L111.246 201.56H119.853L128.737 198.497L137.62 201.56L148.17 196.2L155.943 198.497L164.272 196.2L172.601 193.903L183.15 196.2L190.924 193.903L198.142 189.308L207.858 184.714L217.575 180.885H227.292L237.564 178.588L244.782 180.885H248.946L255.887 184.714L263.938 191.605L272.266 193.903H275.32L282.261 184.714L289.479 180.885L295.864 178.588L308.357 176.29L312.521 170.93L321.683 168.633L332.232 166.336H336.674C338.432 167.101 342.06 168.633 342.504 168.633C342.948 168.633 348.612 170.164 351.388 170.93L358.606 176.29H367.212L375.541 170.93L381.371 173.227L392.476 176.29L399.416 173.227L411.354 170.93C412.742 170.164 415.629 168.633 416.074 168.633C416.518 168.633 419.59 166.08 421.071 164.804H426.623L430.788 157.147H439.671L448 148.969" stroke="#1849A9" stroke-width="2" stroke-linecap="round" stroke-linejoin="round"/>
</g>
<g filter="url(#filter1_b_291_852)">
<rect x="316" y="120" width="192" height="192" rx="12" fill="white" fill-opacity="0.9"/>
<path d="M412 140C421.98 140 431.863 141.966 441.084 145.785C450.305 149.605 458.683 155.203 465.74 162.26C472.797 169.317 478.395 177.695 482.215 186.916C486.034 196.137 488 206.02 488 216C488 225.98 486.034 235.863 482.215 245.084C478.395 254.305 472.797 262.683 465.74 269.74C458.683 276.797 450.305 282.395 441.084 286.215C431.863 290.034 421.98 292 412 292C402.02 292 392.137 290.034 382.916 286.215C373.695 282.395 365.317 276.797 358.26 269.74C351.203 262.683 345.604 254.305 341.785 245.084C337.966 235.863 336 225.98 336 216C336 206.019 337.966 196.137 341.785 186.916C345.605 177.695 351.203 169.317 358.26 162.26C365.317 155.203 373.695 149.604 382.916 145.785C392.137 141.966 402.02 140 412 140L412 140Z" stroke="#84CAFF" stroke-width="8" stroke-linecap="round" stroke-linejoin="round"/>
<path d="M412 140C429.395 140 446.264 145.967 459.79 156.906C473.315 167.844 482.679 183.091 486.318 200.101C489.957 217.111 487.651 234.855 479.784 250.37C471.918 265.885 458.967 278.231 443.094 285.348C427.221 292.465 409.388 293.922 392.571 289.475C375.754 285.027 360.971 274.946 350.691 260.913C340.411 246.881 335.256 229.746 336.087 212.371C336.917 194.996 343.683 178.431 355.255 165.443" stroke="#1849A9" stroke-width="8" stroke-linecap="round" stroke-linejoin="round"/>
<path d="M412 152C420.405 152 428.727 153.655 436.492 156.872C444.257 160.088 451.312 164.802 457.255 170.745C463.198 176.688 467.912 183.743 471.128 191.508C474.345 199.273 476 207.595 476 216C476 224.405 474.345 232.727 471.128 240.492C467.912 248.257 463.198 255.312 457.255 261.255C451.312 267.198 444.257 271.912 436.492 275.128C428.727 278.345 420.405 280 412 280C403.595 280 395.273 278.345 387.508 275.128C379.743 271.912 372.688 267.198 366.745 261.255C360.802 255.312 356.088 248.257 352.872 240.492C349.655 232.727 348 224.405 348 216C348 207.595 349.655 199.273 352.872 191.508C356.088 183.743 360.802 176.688 366.745 170.745C372.688 164.802 379.743 160.088 387.508 156.872C395.273 153.655 403.595 152 412 152L412 152Z" stroke="#84CAFF" stroke-width="8" stroke-linecap="round" stroke-linejoin="round"/>
<path d="M412 152C425.072 152 437.831 156.003 448.561 163.471C459.29 170.938 467.475 181.513 472.016 193.771C476.556 206.03 477.234 219.384 473.957 232.04C470.681 244.695 463.608 256.043 453.69 264.559C443.772 273.074 431.484 278.348 418.478 279.671C405.473 280.995 392.375 278.304 380.945 271.96C369.514 265.617 360.301 255.926 354.543 244.19C348.785 232.454 346.759 219.236 348.737 206.314" stroke="#1570EF" stroke-width="8" stroke-linecap="round" stroke-linejoin="round"/>
<path d="M412 164C418.829 164 425.591 165.345 431.9 167.958C438.208 170.572 443.941 174.402 448.77 179.23C453.598 184.059 457.428 189.792 460.042 196.1C462.655 202.409 464 209.171 464 216C464 222.829 462.655 229.591 460.042 235.9C457.428 242.208 453.598 247.941 448.77 252.77C443.941 257.598 438.208 261.428 431.9 264.042C425.591 266.655 418.829 268 412 268C405.171 268 398.409 266.655 392.1 264.042C385.792 261.428 380.059 257.598 375.23 252.77C370.402 247.941 366.571 242.208 363.958 235.9C361.345 229.591 360 222.829 360 216C360 209.171 361.345 202.409 363.958 196.1C366.572 189.792 370.402 184.059 375.23 179.23C380.059 174.402 385.792 170.571 392.1 167.958C398.409 165.345 405.171 164 412 164L412 164Z" stroke="#84CAFF" stroke-width="8" stroke-linecap="round" stroke-linejoin="round"/>
<path d="M412 164C421.047 164 429.937 166.36 437.792 170.847C445.647 175.334 452.196 181.793 456.791 189.585C461.387 197.378 463.87 206.234 463.995 215.28C464.12 224.326 461.883 233.248 457.506 241.164C453.128 249.081 446.76 255.719 439.032 260.421C431.304 265.124 422.483 267.73 413.44 267.98C404.397 268.231 395.445 266.117 387.468 261.85C379.491 257.582 372.766 251.307 367.957 243.644" stroke="#53B1FD" stroke-width="8" stroke-linecap="round" stroke-linejoin="round"/>
<path d="M377.042 205H375.065L378.078 196.273H380.455L383.464 205H381.487L379.301 198.267H379.232L377.042 205ZM376.919 201.57H381.589V203.01H376.919V201.57ZM387.133 205.128C386.463 205.128 385.886 204.986 385.403 204.702C384.923 204.415 384.553 204.017 384.295 203.509C384.039 203 383.911 202.415 383.911 201.753C383.911 201.082 384.041 200.494 384.299 199.989C384.561 199.48 384.931 199.084 385.411 198.8C385.892 198.513 386.463 198.369 387.124 198.369C387.695 198.369 388.195 198.473 388.624 198.68C389.053 198.888 389.393 199.179 389.643 199.554C389.893 199.929 390.031 200.369 390.056 200.875H388.343C388.295 200.548 388.167 200.286 387.96 200.087C387.755 199.885 387.487 199.784 387.154 199.784C386.873 199.784 386.627 199.861 386.417 200.014C386.21 200.165 386.048 200.385 385.931 200.675C385.815 200.964 385.757 201.315 385.757 201.727C385.757 202.145 385.813 202.5 385.927 202.793C386.044 203.085 386.207 203.308 386.417 203.462C386.627 203.615 386.873 203.692 387.154 203.692C387.362 203.692 387.548 203.649 387.713 203.564C387.88 203.479 388.018 203.355 388.126 203.193C388.237 203.028 388.309 202.831 388.343 202.601H390.056C390.028 203.101 389.892 203.541 389.647 203.922C389.406 204.3 389.072 204.595 388.646 204.808C388.22 205.021 387.715 205.128 387.133 205.128ZM394.7 198.455V199.818H390.758V198.455H394.7ZM391.653 196.886H393.469V202.989C393.469 203.156 393.494 203.287 393.545 203.381C393.596 203.472 393.667 203.536 393.758 203.572C393.852 203.609 393.96 203.628 394.082 203.628C394.167 203.628 394.253 203.621 394.338 203.607C394.423 203.589 394.488 203.577 394.534 203.568L394.819 204.919C394.729 204.947 394.601 204.98 394.436 205.017C394.271 205.057 394.071 205.081 393.835 205.089C393.398 205.107 393.014 205.048 392.684 204.915C392.358 204.781 392.104 204.574 391.922 204.293C391.74 204.011 391.65 203.656 391.653 203.227V196.886ZM395.883 205V198.455H397.698V205H395.883ZM396.795 197.611C396.525 197.611 396.293 197.521 396.1 197.342C395.91 197.161 395.814 196.943 395.814 196.69C395.814 196.44 395.91 196.226 396.1 196.047C396.293 195.865 396.525 195.774 396.795 195.774C397.064 195.774 397.295 195.865 397.485 196.047C397.678 196.226 397.775 196.44 397.775 196.69C397.775 196.943 397.678 197.161 397.485 197.342C397.295 197.521 397.064 197.611 396.795 197.611ZM405.254 198.455L402.966 205H400.921L398.632 198.455H400.55L401.909 203.138H401.977L403.333 198.455H405.254ZM408.955 205.128C408.282 205.128 407.703 204.991 407.217 204.719C406.734 204.443 406.362 204.054 406.1 203.551C405.839 203.045 405.708 202.447 405.708 201.757C405.708 201.084 405.839 200.493 406.1 199.984C406.362 199.476 406.73 199.08 407.204 198.795C407.681 198.511 408.241 198.369 408.883 198.369C409.315 198.369 409.717 198.439 410.089 198.578C410.464 198.714 410.791 198.92 411.069 199.196C411.35 199.472 411.569 199.818 411.725 200.236C411.882 200.651 411.96 201.136 411.96 201.693V202.192H406.433V201.067H410.251C410.251 200.805 410.194 200.574 410.08 200.372C409.967 200.17 409.809 200.013 409.607 199.899C409.409 199.783 409.177 199.724 408.913 199.724C408.637 199.724 408.393 199.788 408.18 199.916C407.97 200.041 407.805 200.21 407.686 200.423C407.566 200.634 407.505 200.868 407.502 201.126V202.196C407.502 202.52 407.562 202.8 407.681 203.036C407.803 203.271 407.975 203.453 408.197 203.581C408.419 203.709 408.681 203.773 408.985 203.773C409.187 203.773 409.372 203.744 409.539 203.688C409.707 203.631 409.85 203.545 409.97 203.432C410.089 203.318 410.18 203.179 410.242 203.014L411.921 203.125C411.836 203.528 411.661 203.881 411.397 204.182C411.136 204.48 410.798 204.713 410.383 204.881C409.971 205.045 409.495 205.128 408.955 205.128ZM420.119 202.213V198.455H421.934V205H420.192V203.811H420.123C419.976 204.195 419.73 204.503 419.386 204.736C419.045 204.969 418.629 205.085 418.138 205.085C417.7 205.085 417.315 204.986 416.983 204.787C416.65 204.588 416.39 204.305 416.203 203.939C416.018 203.572 415.925 203.134 415.922 202.622V198.455H417.737V202.298C417.74 202.685 417.844 202.99 418.048 203.214C418.253 203.439 418.527 203.551 418.871 203.551C419.089 203.551 419.294 203.501 419.484 203.402C419.675 203.3 419.828 203.149 419.944 202.95C420.064 202.751 420.122 202.506 420.119 202.213ZM428.833 200.321L427.171 200.423C427.142 200.281 427.081 200.153 426.987 200.04C426.894 199.923 426.77 199.831 426.617 199.763C426.466 199.692 426.286 199.656 426.075 199.656C425.794 199.656 425.557 199.716 425.364 199.835C425.171 199.952 425.074 200.108 425.074 200.304C425.074 200.46 425.137 200.592 425.262 200.7C425.387 200.808 425.601 200.895 425.905 200.96L427.09 201.199C427.726 201.33 428.2 201.54 428.513 201.83C428.825 202.119 428.982 202.5 428.982 202.972C428.982 203.401 428.855 203.777 428.602 204.101C428.352 204.425 428.009 204.678 427.571 204.859C427.137 205.038 426.635 205.128 426.067 205.128C425.2 205.128 424.51 204.947 423.996 204.587C423.485 204.223 423.185 203.729 423.097 203.104L424.882 203.01C424.936 203.274 425.067 203.476 425.274 203.615C425.482 203.751 425.747 203.82 426.071 203.82C426.389 203.82 426.645 203.759 426.838 203.636C427.034 203.511 427.134 203.351 427.137 203.155C427.134 202.99 427.064 202.855 426.928 202.75C426.791 202.642 426.581 202.56 426.297 202.503L425.164 202.277C424.524 202.149 424.048 201.928 423.736 201.612C423.426 201.297 423.271 200.895 423.271 200.406C423.271 199.986 423.385 199.624 423.612 199.32C423.843 199.016 424.165 198.781 424.58 198.616C424.997 198.452 425.486 198.369 426.046 198.369C426.872 198.369 427.523 198.544 427.997 198.893C428.475 199.243 428.753 199.719 428.833 200.321ZM433.108 205.128C432.434 205.128 431.855 204.991 431.369 204.719C430.886 204.443 430.514 204.054 430.253 203.551C429.991 203.045 429.861 202.447 429.861 201.757C429.861 201.084 429.991 200.493 430.253 199.984C430.514 199.476 430.882 199.08 431.356 198.795C431.834 198.511 432.393 198.369 433.035 198.369C433.467 198.369 433.869 198.439 434.241 198.578C434.616 198.714 434.943 198.92 435.221 199.196C435.503 199.472 435.721 199.818 435.878 200.236C436.034 200.651 436.112 201.136 436.112 201.693V202.192H430.585V201.067H434.403C434.403 200.805 434.346 200.574 434.233 200.372C434.119 200.17 433.961 200.013 433.76 199.899C433.561 199.783 433.329 199.724 433.065 199.724C432.79 199.724 432.545 199.788 432.332 199.916C432.122 200.041 431.957 200.21 431.838 200.423C431.719 200.634 431.657 200.868 431.655 201.126V202.196C431.655 202.52 431.714 202.8 431.834 203.036C431.956 203.271 432.128 203.453 432.349 203.581C432.571 203.709 432.834 203.773 433.138 203.773C433.339 203.773 433.524 203.744 433.692 203.688C433.859 203.631 434.003 203.545 434.122 203.432C434.241 203.318 434.332 203.179 434.395 203.014L436.074 203.125C435.988 203.528 435.814 203.881 435.55 204.182C435.288 204.48 434.95 204.713 434.535 204.881C434.123 205.045 433.648 205.128 433.108 205.128ZM437.297 205V198.455H439.057V199.597H439.125C439.244 199.19 439.444 198.884 439.726 198.676C440.007 198.466 440.331 198.361 440.697 198.361C440.788 198.361 440.886 198.366 440.991 198.378C441.096 198.389 441.189 198.405 441.268 198.425V200.036C441.183 200.01 441.065 199.987 440.915 199.967C440.764 199.947 440.626 199.938 440.501 199.938C440.234 199.938 439.996 199.996 439.785 200.112C439.578 200.226 439.413 200.385 439.291 200.589C439.172 200.794 439.112 201.03 439.112 201.297V205H437.297ZM447.653 200.321L445.991 200.423C445.963 200.281 445.901 200.153 445.808 200.04C445.714 199.923 445.59 199.831 445.437 199.763C445.286 199.692 445.106 199.656 444.896 199.656C444.615 199.656 444.377 199.716 444.184 199.835C443.991 199.952 443.894 200.108 443.894 200.304C443.894 200.46 443.957 200.592 444.082 200.7C444.207 200.808 444.421 200.895 444.725 200.96L445.91 201.199C446.546 201.33 447.021 201.54 447.333 201.83C447.646 202.119 447.802 202.5 447.802 202.972C447.802 203.401 447.676 203.777 447.423 204.101C447.173 204.425 446.829 204.678 446.392 204.859C445.957 205.038 445.455 205.128 444.887 205.128C444.021 205.128 443.33 204.947 442.816 204.587C442.305 204.223 442.005 203.729 441.917 203.104L443.703 203.01C443.757 203.274 443.887 203.476 444.095 203.615C444.302 203.751 444.568 203.82 444.892 203.82C445.21 203.82 445.465 203.759 445.659 203.636C445.855 203.511 445.954 203.351 445.957 203.155C445.954 202.99 445.884 202.855 445.748 202.75C445.612 202.642 445.401 202.56 445.117 202.503L443.984 202.277C443.345 202.149 442.869 201.928 442.556 201.612C442.247 201.297 442.092 200.895 442.092 200.406C442.092 199.986 442.205 199.624 442.433 199.32C442.663 199.016 442.985 198.781 443.4 198.616C443.818 198.452 444.306 198.369 444.866 198.369C445.693 198.369 446.343 198.544 446.818 198.893C447.295 199.243 447.573 199.719 447.653 200.321Z" fill="#667085"/>
<path d="M393.102 216.455V231H391.34V218.301H391.255L387.704 220.659V218.869L391.34 216.455H393.102ZM398.954 229.011L398.84 229.778C398.76 230.318 398.637 230.896 398.471 231.511C398.31 232.127 398.142 232.707 397.967 233.251C397.792 233.796 397.647 234.229 397.534 234.551H396.255C396.317 234.248 396.397 233.848 396.497 233.351C396.596 232.854 396.695 232.297 396.795 231.682C396.899 231.071 396.984 230.446 397.051 229.807L397.136 229.011H398.954ZM406.268 231.199C405.198 231.199 404.286 230.908 403.533 230.325C402.78 229.738 402.205 228.888 401.807 227.776C401.41 226.658 401.211 225.309 401.211 223.727C401.211 222.155 401.41 220.813 401.807 219.7C402.21 218.583 402.787 217.731 403.54 217.143C404.298 216.552 405.207 216.256 406.268 216.256C407.328 216.256 408.235 216.552 408.988 217.143C409.745 217.731 410.323 218.583 410.721 219.7C411.123 220.813 411.324 222.155 411.324 223.727C411.324 225.309 411.126 226.658 410.728 227.776C410.33 228.888 409.755 229.738 409.002 230.325C408.249 230.908 407.338 231.199 406.268 231.199ZM406.268 229.636C407.328 229.636 408.152 229.125 408.739 228.102C409.326 227.08 409.62 225.621 409.62 223.727C409.62 222.468 409.485 221.395 409.215 220.51C408.95 219.625 408.566 218.95 408.064 218.486C407.567 218.022 406.968 217.79 406.268 217.79C405.216 217.79 404.395 218.308 403.803 219.345C403.211 220.377 402.915 221.838 402.915 223.727C402.915 224.987 403.048 226.057 403.313 226.938C403.578 227.818 403.959 228.488 404.456 228.947C404.958 229.407 405.562 229.636 406.268 229.636ZM418.768 231.199C417.698 231.199 416.786 230.908 416.033 230.325C415.28 229.738 414.705 228.888 414.307 227.776C413.91 226.658 413.711 225.309 413.711 223.727C413.711 222.155 413.91 220.813 414.307 219.7C414.71 218.583 415.287 217.731 416.04 217.143C416.798 216.552 417.707 216.256 418.768 216.256C419.828 216.256 420.735 216.552 421.488 217.143C422.245 217.731 422.823 218.583 423.221 219.7C423.623 220.813 423.824 222.155 423.824 223.727C423.824 225.309 423.626 226.658 423.228 227.776C422.83 228.888 422.255 229.738 421.502 230.325C420.749 230.908 419.838 231.199 418.768 231.199ZM418.768 229.636C419.828 229.636 420.652 229.125 421.239 228.102C421.826 227.08 422.12 225.621 422.12 223.727C422.12 222.468 421.985 221.395 421.715 220.51C421.45 219.625 421.066 218.95 420.564 218.486C420.067 218.022 419.468 217.79 418.768 217.79C417.716 217.79 416.895 218.308 416.303 219.345C415.711 220.377 415.415 221.838 415.415 223.727C415.415 224.987 415.548 226.057 415.813 226.938C416.078 227.818 416.459 228.488 416.956 228.947C417.458 229.407 418.062 229.636 418.768 229.636ZM431.268 231.199C430.198 231.199 429.286 230.908 428.533 230.325C427.78 229.738 427.205 228.888 426.807 227.776C426.41 226.658 426.211 225.309 426.211 223.727C426.211 222.155 426.41 220.813 426.807 219.7C427.21 218.583 427.787 217.731 428.54 217.143C429.298 216.552 430.207 216.256 431.268 216.256C432.328 216.256 433.235 216.552 433.988 217.143C434.745 217.731 435.323 218.583 435.721 219.7C436.123 220.813 436.324 222.155 436.324 223.727C436.324 225.309 436.126 226.658 435.728 227.776C435.33 228.888 434.755 229.738 434.002 230.325C433.249 230.908 432.338 231.199 431.268 231.199ZM431.268 229.636C432.328 229.636 433.152 229.125 433.739 228.102C434.326 227.08 434.62 225.621 434.62 223.727C434.62 222.468 434.485 221.395 434.215 220.51C433.95 219.625 433.566 218.95 433.064 218.486C432.567 218.022 431.968 217.79 431.268 217.79C430.216 217.79 429.395 218.308 428.803 219.345C428.211 220.377 427.915 221.838 427.915 223.727C427.915 224.987 428.048 226.057 428.313 226.938C428.578 227.818 428.959 228.488 429.456 228.947C429.958 229.407 430.562 229.636 431.268 229.636Z" fill="#101828"/>
</g>
<defs>
<filter id="filter0_d_291_852" x="0" y="0" width="504" height="332" filterUnits="userSpaceOnUse" color-interpolation-filters="sRGB">
<feFlood flood-opacity="0" result="BackgroundImageFix"/>
<feColorMatrix in="SourceAlpha" type="matrix" values="0 0 0 0 0 0 0 0 0 0 0 0 0 0 0 0 0 0 127 0" result="hardAlpha"/>
<feMorphology radius="12" operator="erode" in="SourceAlpha" result="effect1_dropShadow_291_852"/>
<feOffset dy="24"/>
<feGaussianBlur stdDeviation="24"/>
<feColorMatrix type="matrix" values="0 0 0 0 0.0625882 0 0 0 0 0.0926346 0 0 0 0 0.15702 0 0 0 0.25 0"/>
<feBlend mode="normal" in2="BackgroundImageFix" result="effect1_dropShadow_291_852"/>
<feBlend mode="normal" in="SourceGraphic" in2="effect1_dropShadow_291_852" result="shape"/>
</filter>
<filter id="filter1_b_291_852" x="300" y="104" width="224" height="224" filterUnits="userSpaceOnUse" color-interpolation-filters="sRGB">
<feFlood flood-opacity="0" result="BackgroundImageFix"/>
<feGaussianBlur in="BackgroundImage" stdDeviation="8"/>
<feComposite in2="SourceAlpha" operator="in" result="effect1_backgroundBlur_291_852"/>
<feBlend mode="normal" in="SourceGraphic" in2="effect1_backgroundBlur_291_852" result="shape"/>
</filter>
<linearGradient id="paint0_linear_291_852" x1="252" y1="93.6875" x2="252" y2="220.109" gradientUnits="userSpaceOnUse">
<stop stop-color="#006AFF"/>
<stop offset="1" stop-color="#5B93E2" stop-opacity="0"/>
</linearGradient>
</defs>
</svg>
