<svg width="624" height="533" viewBox="0 0 624 533" fill="none" xmlns="http://www.w3.org/2000/svg">
<g filter="url(#filter0_d_203_96)">
<rect x="64" y="12.8125" width="800" height="460" rx="12" fill="white"/>
<path d="M97.4382 65.8125V52.7216H102.104C103.123 52.7216 103.967 52.907 104.636 53.2777C105.305 53.6484 105.805 54.1555 106.138 54.799C106.47 55.4382 106.636 56.1584 106.636 56.9595C106.636 57.7649 106.468 58.4893 106.131 59.1328C105.799 59.772 105.296 60.2791 104.623 60.6541C103.954 61.0249 103.112 61.2102 102.098 61.2102H98.8892V59.5355H101.919C102.563 59.5355 103.085 59.4247 103.485 59.2031C103.886 58.9773 104.18 58.6705 104.367 58.2827C104.555 57.8949 104.648 57.4538 104.648 56.9595C104.648 56.4652 104.555 56.0263 104.367 55.6428C104.18 55.2592 103.884 54.9588 103.479 54.7415C103.078 54.5241 102.55 54.4155 101.893 54.4155H99.4134V65.8125H97.4382ZM112.907 66.0107C111.94 66.0107 111.107 65.804 110.408 65.3906C109.713 64.973 109.176 64.3871 108.797 63.6328C108.422 62.8743 108.234 61.9858 108.234 60.9673C108.234 59.9616 108.422 59.0753 108.797 58.3082C109.176 57.5412 109.705 56.9425 110.382 56.5121C111.064 56.0817 111.861 55.8665 112.773 55.8665C113.327 55.8665 113.864 55.9581 114.384 56.1413C114.903 56.3246 115.37 56.6122 115.783 57.0043C116.197 57.3963 116.523 57.9055 116.761 58.532C117 59.1541 117.119 59.9105 117.119 60.8011V61.4787H109.315V60.0469H115.246C115.246 59.544 115.144 59.0987 114.94 58.7109C114.735 58.3189 114.447 58.0099 114.077 57.7841C113.71 57.5582 113.28 57.4453 112.786 57.4453C112.249 57.4453 111.78 57.5774 111.379 57.8416C110.983 58.1016 110.676 58.4425 110.459 58.8643C110.246 59.282 110.139 59.7358 110.139 60.2259V61.3445C110.139 62.0007 110.254 62.5589 110.484 63.0192C110.719 63.4794 111.045 63.831 111.462 64.0739C111.88 64.3125 112.368 64.4318 112.926 64.4318C113.288 64.4318 113.619 64.3807 113.917 64.2784C114.215 64.1719 114.473 64.0142 114.69 63.8054C114.908 63.5966 115.074 63.3388 115.189 63.032L116.998 63.358C116.853 63.8906 116.593 64.3572 116.218 64.7578C115.847 65.1541 115.381 65.4631 114.818 65.6847C114.26 65.902 113.623 66.0107 112.907 66.0107ZM123.376 66.0107C122.455 66.0107 121.652 65.7997 120.966 65.3778C120.28 64.956 119.747 64.3658 119.368 63.6072C118.988 62.8487 118.799 61.9624 118.799 60.9482C118.799 59.9297 118.988 59.0391 119.368 58.2763C119.747 57.5135 120.28 56.9212 120.966 56.4993C121.652 56.0774 122.455 55.8665 123.376 55.8665C124.296 55.8665 125.099 56.0774 125.785 56.4993C126.471 56.9212 127.004 57.5135 127.383 58.2763C127.763 59.0391 127.952 59.9297 127.952 60.9482C127.952 61.9624 127.763 62.8487 127.383 63.6072C127.004 64.3658 126.471 64.956 125.785 65.3778C125.099 65.7997 124.296 66.0107 123.376 66.0107ZM123.382 64.4062C123.979 64.4062 124.473 64.2486 124.865 63.9332C125.257 63.6179 125.547 63.1982 125.734 62.674C125.926 62.1499 126.022 61.5724 126.022 60.9418C126.022 60.3153 125.926 59.7401 125.734 59.2159C125.547 58.6875 125.257 58.2635 124.865 57.9439C124.473 57.6243 123.979 57.4645 123.382 57.4645C122.781 57.4645 122.282 57.6243 121.886 57.9439C121.494 58.2635 121.202 58.6875 121.01 59.2159C120.823 59.7401 120.729 60.3153 120.729 60.9418C120.729 61.5724 120.823 62.1499 121.01 62.674C121.202 63.1982 121.494 63.6179 121.886 63.9332C122.282 64.2486 122.781 64.4062 123.382 64.4062ZM130.086 69.4943V55.9943H131.952V57.5859H132.112C132.223 57.3814 132.382 57.1449 132.591 56.8764C132.8 56.608 133.09 56.3736 133.461 56.1733C133.831 55.9688 134.321 55.8665 134.931 55.8665C135.723 55.8665 136.431 56.0668 137.053 56.4673C137.675 56.8679 138.163 57.4453 138.517 58.1996C138.875 58.9538 139.054 59.8615 139.054 60.9226C139.054 61.9837 138.877 62.8935 138.523 63.652C138.169 64.4062 137.684 64.9879 137.066 65.397C136.448 65.8018 135.743 66.0043 134.95 66.0043C134.353 66.0043 133.865 65.9041 133.486 65.7038C133.111 65.5036 132.817 65.2692 132.604 65.0007C132.391 64.7322 132.227 64.4936 132.112 64.2848H131.997V69.4943H130.086ZM131.958 60.9034C131.958 61.5937 132.059 62.1989 132.259 62.7188C132.459 63.2386 132.749 63.6456 133.128 63.9396C133.507 64.2294 133.972 64.3743 134.522 64.3743C135.093 64.3743 135.57 64.223 135.953 63.9205C136.337 63.6136 136.627 63.1982 136.823 62.674C137.023 62.1499 137.123 61.5597 137.123 60.9034C137.123 60.2557 137.025 59.674 136.829 59.1584C136.637 58.6428 136.348 58.2358 135.96 57.9375C135.576 57.6392 135.097 57.4901 134.522 57.4901C133.968 57.4901 133.499 57.6328 133.115 57.9183C132.736 58.2038 132.449 58.6023 132.252 59.1136C132.056 59.625 131.958 60.2216 131.958 60.9034ZM143.106 52.7216V65.8125H141.195V52.7216H143.106ZM149.909 66.0107C148.942 66.0107 148.108 65.804 147.41 65.3906C146.715 64.973 146.178 64.3871 145.799 63.6328C145.424 62.8743 145.236 61.9858 145.236 60.9673C145.236 59.9616 145.424 59.0753 145.799 58.3082C146.178 57.5412 146.706 56.9425 147.384 56.5121C148.066 56.0817 148.863 55.8665 149.775 55.8665C150.329 55.8665 150.866 55.9581 151.385 56.1413C151.905 56.3246 152.372 56.6122 152.785 57.0043C153.199 57.3963 153.525 57.9055 153.763 58.532C154.002 59.1541 154.121 59.9105 154.121 60.8011V61.4787H146.317V60.0469H152.248C152.248 59.544 152.146 59.0987 151.942 58.7109C151.737 58.3189 151.449 58.0099 151.079 57.7841C150.712 57.5582 150.282 57.4453 149.787 57.4453C149.251 57.4453 148.782 57.5774 148.381 57.8416C147.985 58.1016 147.678 58.4425 147.461 58.8643C147.248 59.282 147.141 59.7358 147.141 60.2259V61.3445C147.141 62.0007 147.256 62.5589 147.486 63.0192C147.721 63.4794 148.047 63.831 148.464 64.0739C148.882 64.3125 149.37 64.4318 149.928 64.4318C150.29 64.4318 150.621 64.3807 150.919 64.2784C151.217 64.1719 151.475 64.0142 151.692 63.8054C151.91 63.5966 152.076 63.3388 152.191 63.032L154 63.358C153.855 63.8906 153.595 64.3572 153.22 64.7578C152.849 65.1541 152.383 65.4631 151.82 65.6847C151.262 65.902 150.625 66.0107 149.909 66.0107ZM161.159 65.8125V52.7216H163.07V57.5859H163.185C163.296 57.3814 163.456 57.1449 163.665 56.8764C163.873 56.608 164.163 56.3736 164.534 56.1733C164.905 55.9688 165.395 55.8665 166.004 55.8665C166.797 55.8665 167.504 56.0668 168.126 56.4673C168.748 56.8679 169.236 57.4453 169.59 58.1996C169.948 58.9538 170.127 59.8615 170.127 60.9226C170.127 61.9837 169.95 62.8935 169.596 63.652C169.243 64.4062 168.757 64.9879 168.139 65.397C167.521 65.8018 166.816 66.0043 166.023 66.0043C165.427 66.0043 164.939 65.9041 164.559 65.7038C164.184 65.5036 163.89 65.2692 163.677 65.0007C163.464 64.7322 163.3 64.4936 163.185 64.2848H163.025V65.8125H161.159ZM163.032 60.9034C163.032 61.5937 163.132 62.1989 163.332 62.7188C163.532 63.2386 163.822 63.6456 164.202 63.9396C164.581 64.2294 165.045 64.3743 165.595 64.3743C166.166 64.3743 166.643 64.223 167.027 63.9205C167.41 63.6136 167.7 63.1982 167.896 62.674C168.096 62.1499 168.197 61.5597 168.197 60.9034C168.197 60.2557 168.099 59.674 167.903 59.1584C167.711 58.6428 167.421 58.2358 167.033 57.9375C166.65 57.6392 166.17 57.4901 165.595 57.4901C165.041 57.4901 164.572 57.6328 164.189 57.9183C163.809 58.2038 163.522 58.6023 163.326 59.1136C163.13 59.625 163.032 60.2216 163.032 60.9034ZM176.505 66.0107C175.537 66.0107 174.704 65.804 174.005 65.3906C173.311 64.973 172.774 64.3871 172.395 63.6328C172.02 62.8743 171.832 61.9858 171.832 60.9673C171.832 59.9616 172.02 59.0753 172.395 58.3082C172.774 57.5412 173.302 56.9425 173.98 56.5121C174.662 56.0817 175.458 55.8665 176.37 55.8665C176.924 55.8665 177.461 55.9581 177.981 56.1413C178.501 56.3246 178.968 56.6122 179.381 57.0043C179.794 57.3963 180.12 57.9055 180.359 58.532C180.598 59.1541 180.717 59.9105 180.717 60.8011V61.4787H172.912V60.0469H178.844C178.844 59.544 178.742 59.0987 178.537 58.7109C178.333 58.3189 178.045 58.0099 177.674 57.7841C177.308 57.5582 176.877 57.4453 176.383 57.4453C175.846 57.4453 175.377 57.5774 174.977 57.8416C174.581 58.1016 174.274 58.4425 174.056 58.8643C173.843 59.282 173.737 59.7358 173.737 60.2259V61.3445C173.737 62.0007 173.852 62.5589 174.082 63.0192C174.316 63.4794 174.642 63.831 175.06 64.0739C175.478 64.3125 175.966 64.4318 176.524 64.4318C176.886 64.4318 177.216 64.3807 177.515 64.2784C177.813 64.1719 178.071 64.0142 178.288 63.8054C178.505 63.5966 178.672 63.3388 178.787 63.032L180.596 63.358C180.451 63.8906 180.191 64.3572 179.816 64.7578C179.445 65.1541 178.978 65.4631 178.416 65.6847C177.858 65.902 177.221 66.0107 176.505 66.0107ZM184.749 59.983V65.8125H182.838V55.9943H184.672V57.5923H184.794C185.019 57.0724 185.373 56.6548 185.855 56.3395C186.34 56.0241 186.952 55.8665 187.689 55.8665C188.358 55.8665 188.944 56.0071 189.447 56.2884C189.95 56.5653 190.34 56.9787 190.617 57.5284C190.894 58.0781 191.032 58.7578 191.032 59.5675V65.8125H189.121V59.7976C189.121 59.0859 188.936 58.5298 188.565 58.1293C188.194 57.7244 187.685 57.522 187.037 57.522C186.594 57.522 186.2 57.6179 185.855 57.8097C185.514 58.0014 185.243 58.2827 185.043 58.6534C184.847 59.0199 184.749 59.4631 184.749 59.983ZM197.827 66.0107C196.86 66.0107 196.026 65.804 195.328 65.3906C194.633 64.973 194.096 64.3871 193.717 63.6328C193.342 62.8743 193.154 61.9858 193.154 60.9673C193.154 59.9616 193.342 59.0753 193.717 58.3082C194.096 57.5412 194.624 56.9425 195.302 56.5121C195.984 56.0817 196.781 55.8665 197.693 55.8665C198.247 55.8665 198.784 55.9581 199.303 56.1413C199.823 56.3246 200.29 56.6122 200.703 57.0043C201.117 57.3963 201.443 57.9055 201.681 58.532C201.92 59.1541 202.039 59.9105 202.039 60.8011V61.4787H194.235V60.0469H200.166C200.166 59.544 200.064 59.0987 199.86 58.7109C199.655 58.3189 199.367 58.0099 198.997 57.7841C198.63 57.5582 198.2 57.4453 197.705 57.4453C197.169 57.4453 196.7 57.5774 196.299 57.8416C195.903 58.1016 195.596 58.4425 195.379 58.8643C195.166 59.282 195.059 59.7358 195.059 60.2259V61.3445C195.059 62.0007 195.174 62.5589 195.404 63.0192C195.639 63.4794 195.965 63.831 196.382 64.0739C196.8 64.3125 197.288 64.4318 197.846 64.4318C198.208 64.4318 198.539 64.3807 198.837 64.2784C199.135 64.1719 199.393 64.0142 199.61 63.8054C199.828 63.5966 199.994 63.3388 200.109 63.032L201.918 63.358C201.773 63.8906 201.513 64.3572 201.138 64.7578C200.767 65.1541 200.301 65.4631 199.738 65.6847C199.18 65.902 198.543 66.0107 197.827 66.0107ZM208.832 55.9943V57.5284H203.284V55.9943H208.832ZM204.805 65.8125V54.8565C204.805 54.2429 204.94 53.7337 205.208 53.3288C205.477 52.9197 205.832 52.6151 206.276 52.4148C206.719 52.2102 207.2 52.108 207.72 52.108C208.104 52.108 208.432 52.1399 208.705 52.2038C208.977 52.2635 209.18 52.3189 209.312 52.37L208.864 53.9169C208.775 53.8913 208.66 53.8615 208.519 53.8274C208.379 53.7891 208.208 53.7699 208.008 53.7699C207.543 53.7699 207.211 53.8849 207.011 54.1151C206.815 54.3452 206.717 54.6776 206.717 55.1122V65.8125H204.805ZM210.804 65.8125V55.9943H212.716V65.8125H210.804ZM211.77 54.4794C211.437 54.4794 211.152 54.3686 210.913 54.147C210.679 53.9212 210.561 53.6527 210.561 53.3416C210.561 53.0263 210.679 52.7578 210.913 52.5362C211.152 52.3104 211.437 52.1974 211.77 52.1974C212.102 52.1974 212.385 52.3104 212.62 52.5362C212.858 52.7578 212.978 53.0263 212.978 53.3416C212.978 53.6527 212.858 53.9212 212.62 54.147C212.385 54.3686 212.102 54.4794 211.77 54.4794ZM219.87 55.9943V57.5284H214.507V55.9943H219.87ZM215.945 53.642H217.856V62.9297C217.856 63.3004 217.912 63.5795 218.023 63.767C218.133 63.9503 218.276 64.076 218.451 64.1442C218.63 64.2081 218.824 64.2401 219.032 64.2401C219.186 64.2401 219.32 64.2294 219.435 64.2081C219.55 64.1868 219.64 64.1697 219.704 64.157L220.049 65.7358C219.938 65.7784 219.78 65.821 219.576 65.8636C219.371 65.9105 219.116 65.9361 218.809 65.9403C218.306 65.9489 217.837 65.8594 217.403 65.6719C216.968 65.4844 216.616 65.1946 216.348 64.8026C216.079 64.4105 215.945 63.9183 215.945 63.326V53.642ZM231.42 55.9943V57.5284H225.872V55.9943H231.42ZM227.393 65.8125V54.8565C227.393 54.2429 227.528 53.7337 227.796 53.3288C228.064 52.9197 228.42 52.6151 228.863 52.4148C229.307 52.2102 229.788 52.108 230.308 52.108C230.692 52.108 231.02 52.1399 231.292 52.2038C231.565 52.2635 231.768 52.3189 231.9 52.37L231.452 53.9169C231.363 53.8913 231.248 53.8615 231.107 53.8274C230.966 53.7891 230.796 53.7699 230.596 53.7699C230.131 53.7699 229.799 53.8849 229.599 54.1151C229.403 54.3452 229.305 54.6776 229.305 55.1122V65.8125H227.393ZM233.392 65.8125V55.9943H235.24V57.554H235.342C235.521 57.0256 235.836 56.6101 236.288 56.3075C236.744 56.0007 237.259 55.8473 237.835 55.8473C237.954 55.8473 238.095 55.8516 238.257 55.8601C238.423 55.8686 238.553 55.8793 238.646 55.892V57.7202C238.57 57.6989 238.433 57.6754 238.237 57.6499C238.041 57.62 237.845 57.6051 237.649 57.6051C237.198 57.6051 236.795 57.701 236.441 57.8928C236.092 58.0803 235.815 58.3423 235.61 58.679C235.406 59.0114 235.303 59.3906 235.303 59.8168V65.8125H233.392ZM244.085 66.0107C243.164 66.0107 242.361 65.7997 241.675 65.3778C240.989 64.956 240.456 64.3658 240.077 63.6072C239.697 62.8487 239.508 61.9624 239.508 60.9482C239.508 59.9297 239.697 59.0391 240.077 58.2763C240.456 57.5135 240.989 56.9212 241.675 56.4993C242.361 56.0774 243.164 55.8665 244.085 55.8665C245.005 55.8665 245.808 56.0774 246.494 56.4993C247.18 56.9212 247.713 57.5135 248.092 58.2763C248.472 59.0391 248.661 59.9297 248.661 60.9482C248.661 61.9624 248.472 62.8487 248.092 63.6072C247.713 64.3658 247.18 64.956 246.494 65.3778C245.808 65.7997 245.005 66.0107 244.085 66.0107ZM244.091 64.4062C244.688 64.4062 245.182 64.2486 245.574 63.9332C245.966 63.6179 246.256 63.1982 246.443 62.674C246.635 62.1499 246.731 61.5724 246.731 60.9418C246.731 60.3153 246.635 59.7401 246.443 59.2159C246.256 58.6875 245.966 58.2635 245.574 57.9439C245.182 57.6243 244.688 57.4645 244.091 57.4645C243.49 57.4645 242.991 57.6243 242.595 57.9439C242.203 58.2635 241.911 58.6875 241.719 59.2159C241.532 59.7401 241.438 60.3153 241.438 60.9418C241.438 61.5724 241.532 62.1499 241.719 62.674C241.911 63.1982 242.203 63.6179 242.595 63.9332C242.991 64.2486 243.49 64.4062 244.091 64.4062ZM250.795 65.8125V55.9943H252.629V57.5923H252.751C252.955 57.0511 253.29 56.6293 253.754 56.3267C254.219 56.0199 254.775 55.8665 255.422 55.8665C256.079 55.8665 256.628 56.0199 257.072 56.3267C257.519 56.6335 257.849 57.0554 258.062 57.5923H258.165C258.399 57.0682 258.772 56.6506 259.283 56.3395C259.795 56.0241 260.404 55.8665 261.111 55.8665C262.002 55.8665 262.729 56.1456 263.291 56.7038C263.858 57.2621 264.141 58.1037 264.141 59.2287V65.8125H262.23V59.4077C262.23 58.7429 262.049 58.2614 261.687 57.9631C261.324 57.6648 260.892 57.5156 260.389 57.5156C259.767 57.5156 259.283 57.7074 258.938 58.0909C258.593 58.4702 258.42 58.9581 258.42 59.5547V65.8125H256.515V59.2862C256.515 58.7536 256.349 58.3253 256.017 58.0014C255.684 57.6776 255.252 57.5156 254.719 57.5156C254.357 57.5156 254.023 57.6115 253.716 57.8033C253.413 57.9908 253.168 58.2528 252.981 58.5895C252.797 58.9261 252.706 59.3161 252.706 59.7592V65.8125H250.795ZM271.466 65.8125V55.9943H273.378V65.8125H271.466ZM272.432 54.4794C272.099 54.4794 271.814 54.3686 271.575 54.147C271.341 53.9212 271.224 53.6527 271.224 53.3416C271.224 53.0263 271.341 52.7578 271.575 52.5362C271.814 52.3104 272.099 52.1974 272.432 52.1974C272.764 52.1974 273.047 52.3104 273.282 52.5362C273.52 52.7578 273.64 53.0263 273.64 53.3416C273.64 53.6527 273.52 53.9212 273.282 54.147C273.047 54.3686 272.764 54.4794 272.432 54.4794ZM280.532 55.9943V57.5284H275.169V55.9943H280.532ZM276.607 53.642H278.518V62.9297C278.518 63.3004 278.574 63.5795 278.685 63.767C278.795 63.9503 278.938 64.076 279.113 64.1442C279.292 64.2081 279.486 64.2401 279.695 64.2401C279.848 64.2401 279.982 64.2294 280.097 64.2081C280.212 64.1868 280.302 64.1697 280.366 64.157L280.711 65.7358C280.6 65.7784 280.442 65.821 280.238 65.8636C280.033 65.9105 279.778 65.9361 279.471 65.9403C278.968 65.9489 278.499 65.8594 278.065 65.6719C277.63 65.4844 277.278 65.1946 277.01 64.8026C276.741 64.4105 276.607 63.9183 276.607 63.326V53.642Z" fill="#101828"/>
<line x1="96.5" y1="83.8125" x2="831.5" y2="83.8125" stroke="#F2F4F7" stroke-linecap="round"/>
<line x1="96.5" y1="151.912" x2="831.5" y2="151.912" stroke="#F2F4F7" stroke-linecap="round"/>
<line x1="96.5" y1="217.513" x2="831.5" y2="217.513" stroke="#F2F4F7" stroke-linecap="round"/>
<line x1="96.5" y1="283.112" x2="831.5" y2="283.112" stroke="#F2F4F7" stroke-linecap="round"/>
<line x1="96.5" y1="348.713" x2="831.5" y2="348.713" stroke="#F2F4F7" stroke-linecap="round"/>
<line x1="96.5" y1="414.312" x2="831.5" y2="414.312" stroke="#F2F4F7" stroke-linecap="round"/>
<path d="M124.749 427.085H125.806V433.324C125.806 433.881 125.704 434.354 125.499 434.743C125.295 435.132 125.006 435.428 124.634 435.629C124.262 435.831 123.823 435.932 123.317 435.932C122.84 435.932 122.415 435.845 122.043 435.672C121.671 435.496 121.379 435.246 121.165 434.922C120.952 434.598 120.846 434.213 120.846 433.767H121.886C121.886 434.014 121.947 434.23 122.069 434.415C122.194 434.597 122.364 434.739 122.58 434.841C122.796 434.943 123.042 434.994 123.317 434.994C123.621 434.994 123.88 434.93 124.093 434.803C124.306 434.675 124.468 434.487 124.579 434.24C124.692 433.99 124.749 433.685 124.749 433.324V427.085ZM129.714 435.966C129.299 435.966 128.923 435.888 128.585 435.732C128.246 435.572 127.978 435.344 127.779 435.045C127.58 434.744 127.481 434.381 127.481 433.955C127.481 433.58 127.555 433.276 127.702 433.043C127.85 432.807 128.048 432.622 128.295 432.489C128.542 432.355 128.815 432.256 129.113 432.19C129.414 432.122 129.717 432.068 130.021 432.028C130.418 431.977 130.741 431.939 130.988 431.913C131.238 431.885 131.42 431.838 131.533 431.773C131.65 431.707 131.708 431.594 131.708 431.432V431.398C131.708 430.977 131.593 430.651 131.363 430.418C131.136 430.185 130.79 430.068 130.327 430.068C129.847 430.068 129.471 430.173 129.198 430.384C128.925 430.594 128.734 430.818 128.623 431.057L127.668 430.716C127.839 430.318 128.066 430.009 128.35 429.787C128.637 429.562 128.95 429.406 129.288 429.318C129.629 429.227 129.964 429.182 130.293 429.182C130.504 429.182 130.745 429.207 131.018 429.259C131.293 429.307 131.559 429.408 131.815 429.561C132.073 429.714 132.288 429.946 132.458 430.256C132.629 430.565 132.714 430.98 132.714 431.5V435.812H131.708V434.926H131.657C131.589 435.068 131.475 435.22 131.316 435.382C131.157 435.544 130.945 435.682 130.681 435.795C130.417 435.909 130.094 435.966 129.714 435.966ZM129.867 435.062C130.265 435.062 130.6 434.984 130.873 434.828C131.148 434.672 131.356 434.47 131.495 434.223C131.637 433.976 131.708 433.716 131.708 433.443V432.523C131.665 432.574 131.572 432.621 131.427 432.663C131.285 432.703 131.12 432.739 130.933 432.77C130.748 432.798 130.567 432.824 130.391 432.847C130.218 432.866 130.077 432.884 129.969 432.898C129.708 432.932 129.464 432.987 129.237 433.064C129.012 433.138 128.83 433.25 128.691 433.401C128.555 433.548 128.487 433.75 128.487 434.006C128.487 434.355 128.616 434.619 128.874 434.798C129.136 434.974 129.467 435.062 129.867 435.062ZM135.555 431.875V435.812H134.549V429.267H135.521V430.29H135.606C135.76 429.957 135.993 429.69 136.305 429.489C136.618 429.284 137.021 429.182 137.515 429.182C137.958 429.182 138.346 429.273 138.679 429.455C139.011 429.634 139.27 429.906 139.454 430.273C139.639 430.636 139.731 431.097 139.731 431.653V435.812H138.725V431.722C138.725 431.207 138.592 430.807 138.325 430.52C138.058 430.23 137.691 430.085 137.225 430.085C136.904 430.085 136.618 430.155 136.365 430.294C136.115 430.433 135.917 430.636 135.772 430.903C135.627 431.17 135.555 431.494 135.555 431.875Z" fill="#667085"/>
<path d="M181.149 435.812V427.085H186.382V428.023H182.205V430.972H185.99V431.909H182.205V435.812H181.149ZM190.319 435.949C189.688 435.949 189.144 435.81 188.687 435.531C188.232 435.25 187.882 434.858 187.634 434.355C187.39 433.849 187.268 433.261 187.268 432.591C187.268 431.92 187.39 431.33 187.634 430.818C187.882 430.304 188.225 429.903 188.666 429.616C189.109 429.327 189.626 429.182 190.217 429.182C190.558 429.182 190.894 429.239 191.227 429.352C191.559 429.466 191.862 429.651 192.134 429.906C192.407 430.159 192.624 430.494 192.786 430.912C192.948 431.33 193.029 431.844 193.029 432.455V432.881H187.984V432.011H192.007C192.007 431.642 191.933 431.312 191.785 431.023C191.64 430.733 191.433 430.504 191.163 430.337C190.896 430.169 190.58 430.085 190.217 430.085C189.816 430.085 189.47 430.185 189.177 430.384C188.887 430.58 188.664 430.835 188.508 431.151C188.352 431.466 188.274 431.804 188.274 432.165V432.744C188.274 433.239 188.359 433.658 188.529 434.001C188.703 434.342 188.943 434.602 189.249 434.781C189.556 434.957 189.913 435.045 190.319 435.045C190.583 435.045 190.822 435.009 191.035 434.935C191.251 434.858 191.437 434.744 191.593 434.594C191.749 434.44 191.87 434.25 191.955 434.023L192.927 434.295C192.825 434.625 192.653 434.915 192.411 435.165C192.17 435.412 191.872 435.605 191.517 435.744C191.161 435.881 190.762 435.949 190.319 435.949ZM194.695 435.812V427.085H195.701V430.307H195.786C195.86 430.193 195.963 430.048 196.093 429.872C196.227 429.693 196.417 429.534 196.664 429.395C196.914 429.253 197.252 429.182 197.678 429.182C198.23 429.182 198.715 429.32 199.136 429.595C199.556 429.871 199.884 430.261 200.12 430.767C200.356 431.273 200.474 431.869 200.474 432.557C200.474 433.25 200.356 433.851 200.12 434.359C199.884 434.865 199.558 435.257 199.14 435.536C198.722 435.811 198.241 435.949 197.695 435.949C197.275 435.949 196.938 435.879 196.686 435.74C196.433 435.598 196.238 435.437 196.102 435.259C195.965 435.077 195.86 434.926 195.786 434.807H195.667V435.812H194.695ZM195.684 432.54C195.684 433.034 195.757 433.47 195.901 433.848C196.046 434.223 196.258 434.517 196.536 434.73C196.815 434.94 197.156 435.045 197.559 435.045C197.98 435.045 198.33 434.935 198.612 434.713C198.896 434.489 199.109 434.187 199.251 433.81C199.396 433.429 199.468 433.006 199.468 432.54C199.468 432.08 199.397 431.665 199.255 431.295C199.116 430.923 198.904 430.629 198.62 430.413C198.339 430.195 197.985 430.085 197.559 430.085C197.15 430.085 196.806 430.189 196.528 430.396C196.249 430.601 196.039 430.888 195.897 431.257C195.755 431.624 195.684 432.051 195.684 432.54Z" fill="#667085"/>
<path d="M241.287 427.085H242.549L245.515 434.33H245.617L248.583 427.085H249.844V435.812H248.855V429.182H248.77L246.043 435.812H245.088L242.361 429.182H242.276V435.812H241.287V427.085ZM253.753 435.966C253.338 435.966 252.962 435.888 252.624 435.732C252.286 435.572 252.017 435.344 251.818 435.045C251.619 434.744 251.52 434.381 251.52 433.955C251.52 433.58 251.594 433.276 251.741 433.043C251.889 432.807 252.087 432.622 252.334 432.489C252.581 432.355 252.854 432.256 253.152 432.19C253.453 432.122 253.756 432.068 254.06 432.028C254.457 431.977 254.78 431.939 255.027 431.913C255.277 431.885 255.459 431.838 255.572 431.773C255.689 431.707 255.747 431.594 255.747 431.432V431.398C255.747 430.977 255.632 430.651 255.402 430.418C255.175 430.185 254.83 430.068 254.366 430.068C253.886 430.068 253.51 430.173 253.237 430.384C252.964 430.594 252.773 430.818 252.662 431.057L251.707 430.716C251.878 430.318 252.105 430.009 252.389 429.787C252.676 429.562 252.989 429.406 253.327 429.318C253.668 429.227 254.003 429.182 254.332 429.182C254.543 429.182 254.784 429.207 255.057 429.259C255.332 429.307 255.598 429.408 255.854 429.561C256.112 429.714 256.327 429.946 256.497 430.256C256.668 430.565 256.753 430.98 256.753 431.5V435.812H255.747V434.926H255.696C255.628 435.068 255.514 435.22 255.355 435.382C255.196 435.544 254.984 435.682 254.72 435.795C254.456 435.909 254.134 435.966 253.753 435.966ZM253.906 435.062C254.304 435.062 254.639 434.984 254.912 434.828C255.188 434.672 255.395 434.47 255.534 434.223C255.676 433.976 255.747 433.716 255.747 433.443V432.523C255.705 432.574 255.611 432.621 255.466 432.663C255.324 432.703 255.159 432.739 254.972 432.77C254.787 432.798 254.607 432.824 254.43 432.847C254.257 432.866 254.116 432.884 254.009 432.898C253.747 432.932 253.503 432.987 253.276 433.064C253.051 433.138 252.869 433.25 252.73 433.401C252.594 433.548 252.526 433.75 252.526 434.006C252.526 434.355 252.655 434.619 252.913 434.798C253.175 434.974 253.506 435.062 253.906 435.062ZM258.588 435.812V429.267H259.56V430.256H259.628C259.748 429.932 259.963 429.669 260.276 429.467C260.588 429.266 260.941 429.165 261.333 429.165C261.407 429.165 261.499 429.166 261.61 429.169C261.721 429.172 261.804 429.176 261.861 429.182V430.205C261.827 430.196 261.749 430.183 261.627 430.166C261.507 430.146 261.381 430.136 261.248 430.136C260.929 430.136 260.645 430.203 260.395 430.337C260.148 430.467 259.952 430.649 259.807 430.882C259.665 431.112 259.594 431.375 259.594 431.67V435.812H258.588Z" fill="#667085"/>
<path d="M302.745 435.812H301.637L304.841 427.085H305.932L309.137 435.812H308.029L305.421 428.466H305.353L302.745 435.812ZM303.154 432.403H307.62V433.341H303.154V432.403ZM310.36 438.267V429.267H311.331V430.307H311.451C311.525 430.193 311.627 430.048 311.758 429.872C311.891 429.693 312.081 429.534 312.329 429.395C312.579 429.253 312.917 429.182 313.343 429.182C313.894 429.182 314.38 429.32 314.8 429.595C315.221 429.871 315.549 430.261 315.785 430.767C316.02 431.273 316.138 431.869 316.138 432.557C316.138 433.25 316.02 433.851 315.785 434.359C315.549 434.865 315.222 435.257 314.805 435.536C314.387 435.811 313.905 435.949 313.36 435.949C312.939 435.949 312.603 435.879 312.35 435.74C312.097 435.598 311.903 435.437 311.766 435.259C311.63 435.077 311.525 434.926 311.451 434.807H311.366V438.267H310.36ZM311.349 432.54C311.349 433.034 311.421 433.47 311.566 433.848C311.711 434.223 311.922 434.517 312.201 434.73C312.479 434.94 312.82 435.045 313.224 435.045C313.644 435.045 313.995 434.935 314.276 434.713C314.56 434.489 314.773 434.187 314.915 433.81C315.06 433.429 315.133 433.006 315.133 432.54C315.133 432.08 315.062 431.665 314.92 431.295C314.78 430.923 314.569 430.629 314.285 430.413C314.003 430.195 313.65 430.085 313.224 430.085C312.814 430.085 312.471 430.189 312.192 430.396C311.914 430.601 311.704 430.888 311.562 431.257C311.42 431.624 311.349 432.051 311.349 432.54ZM317.672 435.812V429.267H318.644V430.256H318.712C318.831 429.932 319.047 429.669 319.36 429.467C319.672 429.266 320.025 429.165 320.417 429.165C320.491 429.165 320.583 429.166 320.694 429.169C320.805 429.172 320.888 429.176 320.945 429.182V430.205C320.911 430.196 320.833 430.183 320.711 430.166C320.591 430.146 320.465 430.136 320.331 430.136C320.013 430.136 319.729 430.203 319.479 430.337C319.232 430.467 319.036 430.649 318.891 430.882C318.749 431.112 318.678 431.375 318.678 431.67V435.812H317.672Z" fill="#667085"/>
<path d="M361.479 427.085H362.74L365.706 434.33H365.808L368.774 427.085H370.036V435.812H369.047V429.182H368.962L366.234 435.812H365.28L362.553 429.182H362.467V435.812H361.479V427.085ZM373.944 435.966C373.529 435.966 373.153 435.888 372.815 435.732C372.477 435.572 372.208 435.344 372.01 435.045C371.811 434.744 371.711 434.381 371.711 433.955C371.711 433.58 371.785 433.276 371.933 433.043C372.081 432.807 372.278 432.622 372.525 432.489C372.772 432.355 373.045 432.256 373.343 432.19C373.645 432.122 373.947 432.068 374.251 432.028C374.649 431.977 374.971 431.939 375.218 431.913C375.468 431.885 375.65 431.838 375.764 431.773C375.88 431.707 375.939 431.594 375.939 431.432V431.398C375.939 430.977 375.824 430.651 375.593 430.418C375.366 430.185 375.021 430.068 374.558 430.068C374.078 430.068 373.701 430.173 373.429 430.384C373.156 430.594 372.964 430.818 372.853 431.057L371.899 430.716C372.069 430.318 372.297 430.009 372.581 429.787C372.868 429.562 373.18 429.406 373.518 429.318C373.859 429.227 374.194 429.182 374.524 429.182C374.734 429.182 374.975 429.207 375.248 429.259C375.524 429.307 375.789 429.408 376.045 429.561C376.304 429.714 376.518 429.946 376.689 430.256C376.859 430.565 376.944 430.98 376.944 431.5V435.812H375.939V434.926H375.887C375.819 435.068 375.706 435.22 375.547 435.382C375.387 435.544 375.176 435.682 374.912 435.795C374.647 435.909 374.325 435.966 373.944 435.966ZM374.098 435.062C374.495 435.062 374.831 434.984 375.103 434.828C375.379 434.672 375.586 434.47 375.725 434.223C375.868 433.976 375.939 433.716 375.939 433.443V432.523C375.896 432.574 375.802 432.621 375.657 432.663C375.515 432.703 375.35 432.739 375.163 432.77C374.978 432.798 374.798 432.824 374.622 432.847C374.449 432.866 374.308 432.884 374.2 432.898C373.939 432.932 373.694 432.987 373.467 433.064C373.243 433.138 373.061 433.25 372.922 433.401C372.785 433.548 372.717 433.75 372.717 434.006C372.717 434.355 372.846 434.619 373.105 434.798C373.366 434.974 373.697 435.062 374.098 435.062ZM379.193 438.267C379.023 438.267 378.871 438.253 378.737 438.224C378.604 438.199 378.511 438.173 378.46 438.148L378.716 437.261C378.96 437.324 379.176 437.347 379.364 437.33C379.551 437.312 379.717 437.229 379.862 437.078C380.01 436.93 380.145 436.69 380.267 436.358L380.455 435.847L378.034 429.267H379.125L380.932 434.483H381L382.807 429.267H383.898L381.119 436.767C380.994 437.105 380.839 437.385 380.655 437.607C380.47 437.831 380.256 437.997 380.011 438.105C379.77 438.213 379.497 438.267 379.193 438.267Z" fill="#667085"/>
<path d="M428.099 427.085H429.156V433.324C429.156 433.881 429.053 434.354 428.849 434.743C428.644 435.132 428.356 435.428 427.984 435.629C427.612 435.831 427.173 435.932 426.667 435.932C426.19 435.932 425.765 435.845 425.393 435.672C425.021 435.496 424.728 435.246 424.515 434.922C424.302 434.598 424.195 434.213 424.195 433.767H425.235C425.235 434.014 425.296 434.23 425.419 434.415C425.544 434.597 425.714 434.739 425.93 434.841C426.146 434.943 426.392 434.994 426.667 434.994C426.971 434.994 427.23 434.93 427.443 434.803C427.656 434.675 427.818 434.487 427.928 434.24C428.042 433.99 428.099 433.685 428.099 433.324V427.085ZM435.262 433.136V429.267H436.268V435.812H435.262V434.705H435.194C435.041 435.037 434.802 435.32 434.478 435.553C434.154 435.783 433.745 435.898 433.251 435.898C432.842 435.898 432.478 435.808 432.16 435.629C431.842 435.447 431.592 435.175 431.41 434.811C431.228 434.445 431.137 433.983 431.137 433.426V429.267H432.143V433.358C432.143 433.835 432.276 434.216 432.544 434.5C432.813 434.784 433.157 434.926 433.575 434.926C433.825 434.926 434.079 434.862 434.338 434.734C434.599 434.607 434.818 434.411 434.994 434.146C435.173 433.882 435.262 433.545 435.262 433.136ZM439.116 431.875V435.812H438.11V429.267H439.081V430.29H439.167C439.32 429.957 439.553 429.69 439.866 429.489C440.178 429.284 440.581 429.182 441.076 429.182C441.519 429.182 441.907 429.273 442.239 429.455C442.572 429.634 442.83 429.906 443.015 430.273C443.199 430.636 443.292 431.097 443.292 431.653V435.812H442.286V431.722C442.286 431.207 442.153 430.807 441.885 430.52C441.618 430.23 441.252 430.085 440.786 430.085C440.465 430.085 440.178 430.155 439.925 430.294C439.675 430.433 439.478 430.636 439.333 430.903C439.188 431.17 439.116 431.494 439.116 431.875Z" fill="#667085"/>
<path d="M488.275 427.085H489.331V433.324C489.331 433.881 489.229 434.354 489.025 434.743C488.82 435.132 488.532 435.428 488.16 435.629C487.787 435.831 487.349 435.932 486.843 435.932C486.366 435.932 485.941 435.845 485.569 435.672C485.197 435.496 484.904 435.246 484.691 434.922C484.478 434.598 484.371 434.213 484.371 433.767H485.411C485.411 434.014 485.472 434.23 485.594 434.415C485.719 434.597 485.89 434.739 486.106 434.841C486.322 434.943 486.567 434.994 486.843 434.994C487.147 434.994 487.405 434.93 487.618 434.803C487.831 434.675 487.993 434.487 488.104 434.24C488.218 433.99 488.275 433.685 488.275 433.324V427.085ZM495.438 433.136V429.267H496.444V435.812H495.438V434.705H495.37C495.216 435.037 494.978 435.32 494.654 435.553C494.33 435.783 493.921 435.898 493.427 435.898C493.018 435.898 492.654 435.808 492.336 435.629C492.018 435.447 491.768 435.175 491.586 434.811C491.404 434.445 491.313 433.983 491.313 433.426V429.267H492.319V433.358C492.319 433.835 492.452 434.216 492.719 434.5C492.989 434.784 493.333 434.926 493.751 434.926C494.001 434.926 494.255 434.862 494.513 434.734C494.775 434.607 494.993 434.411 495.17 434.146C495.349 433.882 495.438 433.545 495.438 433.136ZM499.291 427.085V435.812H498.286V427.085H499.291Z" fill="#667085"/>
<path d="M541.354 435.812H540.246L543.451 427.085H544.542L547.746 435.812H546.638L544.03 428.466H543.962L541.354 435.812ZM541.763 432.403H546.229V433.341H541.763V432.403ZM553.094 433.136V429.267H554.1V435.812H553.094V434.705H553.026C552.873 435.037 552.634 435.32 552.31 435.553C551.986 435.783 551.577 435.898 551.083 435.898C550.674 435.898 550.31 435.808 549.992 435.629C549.674 435.447 549.424 435.175 549.242 434.811C549.06 434.445 548.969 433.983 548.969 433.426V429.267H549.975V433.358C549.975 433.835 550.108 434.216 550.376 434.5C550.645 434.784 550.989 434.926 551.407 434.926C551.657 434.926 551.911 434.862 552.17 434.734C552.431 434.607 552.65 434.411 552.826 434.146C553.005 433.882 553.094 433.545 553.094 433.136ZM558.584 438.403C558.098 438.403 557.681 438.341 557.331 438.216C556.982 438.094 556.691 437.932 556.458 437.73C556.227 437.531 556.044 437.318 555.908 437.091L556.709 436.528C556.8 436.648 556.915 436.784 557.054 436.938C557.193 437.094 557.384 437.229 557.625 437.342C557.869 437.459 558.189 437.517 558.584 437.517C559.112 437.517 559.548 437.389 559.892 437.134C560.236 436.878 560.408 436.477 560.408 435.932V434.602H560.323C560.249 434.722 560.144 434.869 560.007 435.045C559.874 435.219 559.681 435.374 559.428 435.51C559.178 435.643 558.84 435.71 558.414 435.71C557.885 435.71 557.411 435.585 556.99 435.335C556.573 435.085 556.242 434.722 555.997 434.244C555.756 433.767 555.635 433.187 555.635 432.506C555.635 431.835 555.753 431.251 555.989 430.754C556.225 430.254 556.553 429.868 556.973 429.595C557.394 429.32 557.879 429.182 558.431 429.182C558.857 429.182 559.195 429.253 559.445 429.395C559.698 429.534 559.891 429.693 560.024 429.872C560.161 430.048 560.266 430.193 560.34 430.307H560.442V429.267H561.414V436C561.414 436.562 561.286 437.02 561.03 437.372C560.777 437.727 560.436 437.987 560.007 438.152C559.581 438.32 559.107 438.403 558.584 438.403ZM558.55 434.807C558.953 434.807 559.294 434.714 559.573 434.53C559.851 434.345 560.063 434.08 560.208 433.733C560.352 433.386 560.425 432.972 560.425 432.489C560.425 432.017 560.354 431.601 560.212 431.24C560.07 430.879 559.86 430.597 559.581 430.392C559.303 430.187 558.959 430.085 558.55 430.085C558.124 430.085 557.769 430.193 557.485 430.409C557.203 430.625 556.992 430.915 556.85 431.278C556.71 431.642 556.641 432.045 556.641 432.489C556.641 432.943 556.712 433.345 556.854 433.695C556.999 434.041 557.212 434.314 557.493 434.513C557.777 434.709 558.129 434.807 558.55 434.807Z" fill="#667085"/>
<path d="M607.581 429.267C607.53 428.835 607.323 428.5 606.959 428.261C606.596 428.023 606.15 427.903 605.621 427.903C605.235 427.903 604.897 427.966 604.607 428.091C604.32 428.216 604.096 428.388 603.934 428.607C603.775 428.825 603.695 429.074 603.695 429.352C603.695 429.585 603.751 429.786 603.861 429.953C603.975 430.118 604.12 430.256 604.296 430.366C604.472 430.474 604.657 430.564 604.85 430.635C605.043 430.703 605.221 430.759 605.383 430.801L606.269 431.04C606.496 431.099 606.749 431.182 607.028 431.287C607.309 431.392 607.577 431.536 607.833 431.717C608.091 431.896 608.305 432.126 608.472 432.408C608.64 432.689 608.724 433.034 608.724 433.443C608.724 433.915 608.6 434.341 608.353 434.722C608.108 435.102 607.751 435.405 607.279 435.629C606.81 435.854 606.241 435.966 605.57 435.966C604.945 435.966 604.404 435.865 603.947 435.663C603.492 435.462 603.134 435.18 602.873 434.82C602.614 434.459 602.468 434.04 602.434 433.562H603.525C603.553 433.892 603.664 434.165 603.857 434.381C604.053 434.594 604.3 434.753 604.599 434.858C604.9 434.96 605.224 435.011 605.57 435.011C605.974 435.011 606.336 434.946 606.657 434.815C606.978 434.682 607.232 434.497 607.42 434.261C607.607 434.023 607.701 433.744 607.701 433.426C607.701 433.136 607.62 432.901 607.458 432.719C607.296 432.537 607.083 432.389 606.819 432.276C606.555 432.162 606.269 432.062 605.962 431.977L604.888 431.67C604.206 431.474 603.667 431.195 603.269 430.831C602.871 430.467 602.672 429.991 602.672 429.403C602.672 428.915 602.805 428.489 603.069 428.125C603.336 427.759 603.694 427.474 604.143 427.273C604.594 427.068 605.099 426.966 605.655 426.966C606.218 426.966 606.718 427.067 607.155 427.268C607.593 427.467 607.939 427.74 608.195 428.087C608.454 428.433 608.59 428.827 608.604 429.267H607.581ZM613.069 435.949C612.438 435.949 611.894 435.81 611.437 435.531C610.982 435.25 610.632 434.858 610.384 434.355C610.14 433.849 610.018 433.261 610.018 432.591C610.018 431.92 610.14 431.33 610.384 430.818C610.632 430.304 610.975 429.903 611.416 429.616C611.859 429.327 612.376 429.182 612.967 429.182C613.308 429.182 613.644 429.239 613.977 429.352C614.309 429.466 614.612 429.651 614.884 429.906C615.157 430.159 615.374 430.494 615.536 430.912C615.698 431.33 615.779 431.844 615.779 432.455V432.881H610.734V432.011H614.757C614.757 431.642 614.683 431.312 614.535 431.023C614.39 430.733 614.183 430.504 613.913 430.337C613.646 430.169 613.33 430.085 612.967 430.085C612.566 430.085 612.22 430.185 611.927 430.384C611.637 430.58 611.414 430.835 611.258 431.151C611.102 431.466 611.024 431.804 611.024 432.165V432.744C611.024 433.239 611.109 433.658 611.279 434.001C611.453 434.342 611.693 434.602 611.999 434.781C612.306 434.957 612.663 435.045 613.069 435.045C613.333 435.045 613.572 435.009 613.785 434.935C614.001 434.858 614.187 434.744 614.343 434.594C614.499 434.44 614.62 434.25 614.705 434.023L615.677 434.295C615.575 434.625 615.403 434.915 615.161 435.165C614.92 435.412 614.622 435.605 614.267 435.744C613.911 435.881 613.512 435.949 613.069 435.949ZM617.309 438.267V429.267H618.281V430.307H618.4C618.474 430.193 618.576 430.048 618.707 429.872C618.84 429.693 619.031 429.534 619.278 429.395C619.528 429.253 619.866 429.182 620.292 429.182C620.843 429.182 621.329 429.32 621.749 429.595C622.17 429.871 622.498 430.261 622.734 430.767C622.97 431.273 623.088 431.869 623.088 432.557C623.088 433.25 622.97 433.851 622.734 434.359C622.498 434.865 622.171 435.257 621.754 435.536C621.336 435.811 620.855 435.949 620.309 435.949C619.889 435.949 619.552 435.879 619.299 435.74C619.046 435.598 618.852 435.437 618.715 435.259C618.579 435.077 618.474 434.926 618.4 434.807H618.315V438.267H617.309ZM618.298 432.54C618.298 433.034 618.37 433.47 618.515 433.848C618.66 434.223 618.872 434.517 619.15 434.73C619.428 434.94 619.769 435.045 620.173 435.045C620.593 435.045 620.944 434.935 621.225 434.713C621.509 434.489 621.722 434.187 621.865 433.81C622.009 433.429 622.082 433.006 622.082 432.54C622.082 432.08 622.011 431.665 621.869 431.295C621.73 430.923 621.518 430.629 621.234 430.413C620.953 430.195 620.599 430.085 620.173 430.085C619.764 430.085 619.42 430.189 619.142 430.396C618.863 430.601 618.653 430.888 618.511 431.257C618.369 431.624 618.298 432.051 618.298 432.54Z" fill="#667085"/>
<g style="mix-blend-mode:multiply" opacity="0.1">
<path d="M112.68 219.352L96 225.104V416.813H832V155.229L816.363 164.783H799.683L791.864 173.729H781.439C778.659 175.22 772.891 178.202 772.057 178.202C771.223 178.202 765.802 179.991 763.195 180.886L740.782 183.569L727.751 187.148L706.901 183.569L695.955 180.886L680.317 187.148H664.159L650.606 180.886C645.394 179.991 634.76 178.202 633.926 178.202C633.092 178.202 626.281 176.413 622.98 175.518H614.64L594.833 178.202L577.632 180.886L569.813 187.148L546.357 189.831L534.368 192.515L520.816 196.988L507.785 207.723H502.051L486.414 205.039L471.297 196.988L458.266 192.515H450.448L436.895 189.831L417.609 192.515H399.365L381.122 196.988L362.878 202.355L349.326 207.723L334.731 210.406L314.924 207.723L299.286 210.406L283.649 213.09L269.054 210.406L249.246 216.668L232.567 213.09L215.887 216.668H199.728L182.527 219.352H164.805L147.082 222.036L129.881 216.668L112.68 219.352Z" fill="url(#paint0_linear_203_96)"/>
</g>
<path d="M96 225.104L112.68 219.352L129.881 216.668L147.082 222.036L164.805 219.352H182.527L199.728 216.668H215.887L232.567 213.09L249.246 216.668L269.054 210.406L283.649 213.09L299.286 210.406L314.924 207.723L334.731 210.406L349.326 207.723L362.878 202.355L381.122 196.988L399.365 192.515H417.609L436.895 189.831L450.448 192.515H458.266L471.297 196.988L486.414 205.039L502.051 207.723H507.785L520.816 196.988L534.368 192.515L546.357 189.831L569.813 187.148L577.632 180.886L594.833 178.202L614.64 175.518H622.98C626.281 176.413 633.092 178.202 633.926 178.202C634.76 178.202 645.394 179.991 650.606 180.886L664.159 187.148H680.317L695.955 180.886L706.901 183.569L727.751 187.148L740.782 183.569L763.195 180.886C765.802 179.991 771.223 178.202 772.057 178.202C772.891 178.202 778.659 175.22 781.439 173.729H791.864L799.683 164.783H816.363L832 155.229" stroke="#1570EF" stroke-width="2" stroke-linecap="round" stroke-linejoin="round"/>
<path d="M96 294.697L112.68 291.033L129.881 289.323L147.082 292.742L164.805 291.033H182.527L199.728 289.323H215.887L232.567 287.044L249.246 289.323L269.054 285.334L283.649 287.044L299.286 285.334L314.924 283.625L334.731 285.334L349.326 283.625L362.878 280.206L381.122 276.787L399.365 273.938H417.609L436.895 272.228L450.448 273.938H458.266L471.297 276.787L486.414 281.915L502.051 283.625H507.785L520.816 276.787L534.368 273.938L546.357 272.228L569.813 270.519L577.632 266.53L594.833 264.821L614.64 263.111H622.98C626.281 263.681 633.092 264.821 633.926 264.821C634.76 264.821 645.394 265.96 650.606 266.53L664.159 270.519H680.317L695.955 266.53L706.901 268.24L727.751 270.519L740.782 268.24L763.195 266.53C765.802 265.96 771.223 264.821 772.057 264.821C772.891 264.821 778.659 262.921 781.439 261.971H791.864L799.683 256.273H816.363L832 250.188" stroke="#53B1FD" stroke-width="2" stroke-linecap="round" stroke-linejoin="round"/>
<path d="M96 382.771L112.68 373.036L129.881 368.494L147.082 377.577L164.805 373.036H182.527L199.728 368.494H215.887L232.567 362.439L249.246 368.494L269.054 357.897L283.649 362.439L299.286 357.897L314.924 353.355L334.731 357.897L349.326 353.355L362.878 344.272L381.122 335.188L399.365 327.619H417.609L436.895 323.077L450.448 327.619H458.266L471.297 335.188L486.414 348.813L502.051 353.355H507.785L520.816 335.188L534.368 327.619L546.357 323.077L569.813 318.536L577.632 307.938L594.833 303.397L614.64 298.855H622.98C626.281 300.369 633.092 303.397 633.926 303.397C634.76 303.397 645.394 306.425 650.606 307.938L664.159 318.536H680.317L695.955 307.938L706.901 312.48L727.751 318.536L740.782 312.48L763.195 307.938C765.802 306.425 771.223 303.397 772.057 303.397C772.891 303.397 778.659 298.35 781.439 295.827H791.864L799.683 280.688H816.363L832 264.521" stroke="#1849A9" stroke-width="2" stroke-linecap="round" stroke-linejoin="round"/>
</g>
<g filter="url(#filter1_b_203_96)">
<rect x="8" y="240.812" width="272" height="272" rx="12" fill="white" fill-opacity="0.9"/>
<path d="M144 264.812C158.708 264.813 173.272 267.709 186.861 273.338C200.449 278.967 212.796 287.216 223.196 297.617C233.596 308.017 241.846 320.364 247.475 333.952C253.103 347.54 256 362.104 256 376.813C256 391.521 253.103 406.085 247.474 419.673C241.846 433.262 233.596 445.608 223.196 456.008C212.796 466.409 200.449 474.658 186.861 480.287C173.272 485.916 158.708 488.813 144 488.812C129.292 488.812 114.728 485.916 101.139 480.287C87.551 474.658 75.2042 466.409 64.804 456.008C54.4038 445.608 46.154 433.261 40.5255 419.673C34.897 406.085 32 391.52 32 376.812C32 362.104 34.897 347.54 40.5255 333.952C46.1541 320.363 54.4039 308.017 64.8041 297.616C75.2043 287.216 87.551 278.966 101.14 273.338C114.728 267.709 129.292 264.812 144 264.813L144 264.812Z" stroke="#84CAFF" stroke-width="16" stroke-linecap="round" stroke-linejoin="round"/>
<path d="M144 264.812C169.635 264.813 194.494 273.606 214.427 289.726C234.359 305.845 248.159 328.315 253.522 353.383C258.885 378.45 255.486 404.599 243.893 427.463C232.3 450.327 213.214 468.522 189.823 479.01C166.432 489.498 140.15 491.644 115.367 485.091C90.5843 478.537 68.7994 463.68 53.65 443.001C38.5006 422.321 30.9037 397.07 32.1277 371.465C33.3518 345.859 43.3226 321.448 60.3755 302.308" stroke="#1849A9" stroke-width="16" stroke-linecap="round" stroke-linejoin="round"/>
<path d="M144 284.812C156.082 284.813 168.045 287.192 179.207 291.816C190.369 296.439 200.511 303.216 209.054 311.759C217.597 320.302 224.373 330.444 228.997 341.606C233.62 352.768 236 364.731 236 376.813C236 388.894 233.62 400.857 228.997 412.019C224.373 423.181 217.597 433.323 209.054 441.866C200.511 450.409 190.369 457.186 179.207 461.809C168.045 466.433 156.082 468.813 144 468.812C131.918 468.812 119.955 466.433 108.793 461.809C97.6311 457.186 87.4891 450.409 78.9461 441.866C70.4032 433.323 63.6265 423.181 59.0031 412.019C54.3796 400.857 52 388.894 52 376.812C52 364.731 54.3797 352.768 59.0031 341.606C63.6265 330.444 70.4032 320.302 78.9462 311.759C87.4892 303.216 97.6312 296.439 108.793 291.816C119.955 287.192 131.918 284.812 144 284.813L144 284.812Z" stroke="#84CAFF" stroke-width="16" stroke-linecap="round" stroke-linejoin="round"/>
<path d="M144 284.812C162.791 284.813 181.132 290.567 196.556 301.302C211.979 312.036 223.746 327.237 230.272 344.858C236.799 362.48 237.773 381.678 233.064 399.869C228.354 418.061 218.187 434.375 203.929 446.615C189.672 458.856 172.008 466.438 153.313 468.34C134.618 470.242 115.789 466.374 99.3578 457.255C82.9269 448.137 69.6823 434.206 61.4053 417.335C53.1282 400.465 50.2158 381.465 53.0596 362.89" stroke="#1570EF" stroke-width="16" stroke-linecap="round" stroke-linejoin="round"/>
<path d="M144 304.812C153.455 304.813 162.818 306.675 171.553 310.293C180.289 313.912 188.226 319.215 194.912 325.901C201.598 332.587 206.901 340.524 210.519 349.259C214.138 357.995 216 367.357 216 376.813C216 386.268 214.138 395.63 210.519 404.366C206.901 413.101 201.597 421.038 194.912 427.724C188.226 434.41 180.289 439.713 171.553 443.332C162.818 446.95 153.455 448.813 144 448.812C134.545 448.812 125.182 446.95 116.447 443.332C107.711 439.713 99.7741 434.41 93.0883 427.724C86.4025 421.038 81.099 413.101 77.4807 404.366C73.8623 395.63 72 386.268 72 376.812C72 367.357 73.8623 357.995 77.4807 349.259C81.099 340.524 86.4025 332.587 93.0883 325.901C99.7742 319.215 107.711 313.911 116.447 310.293C125.182 306.675 134.545 304.812 144 304.813L144 304.812Z" stroke="#84CAFF" stroke-width="16" stroke-linecap="round" stroke-linejoin="round"/>
<path d="M144 304.812C156.526 304.813 168.835 308.08 179.712 314.293C190.588 320.506 199.656 329.449 206.019 340.239C212.382 351.028 215.82 363.291 215.993 375.816C216.167 388.341 213.069 400.694 207.008 411.655C200.946 422.617 192.129 431.808 181.429 438.319C170.729 444.831 158.514 448.438 145.993 448.785C133.472 449.132 121.077 446.206 110.033 440.297C98.9882 434.387 89.6765 425.699 83.0174 415.089" stroke="#53B1FD" stroke-width="16" stroke-linecap="round" stroke-linejoin="round"/>
<path d="M104.56 360.812H102.929L106.593 350.631H108.368L112.032 360.812H110.401L107.523 352.48H107.443L104.56 360.812ZM104.833 356.825H110.123V358.118H104.833V356.825ZM116.477 360.967C115.738 360.967 115.101 360.799 114.568 360.464C114.037 360.126 113.63 359.661 113.345 359.067C113.06 358.474 112.917 357.795 112.917 357.029C112.917 356.254 113.063 355.569 113.354 354.976C113.646 354.379 114.057 353.914 114.587 353.579C115.118 353.244 115.743 353.077 116.462 353.077C117.042 353.077 117.559 353.184 118.013 353.4C118.467 353.612 118.833 353.91 119.112 354.295C119.393 354.679 119.561 355.128 119.614 355.642H118.167C118.087 355.284 117.905 354.976 117.62 354.717C117.338 354.459 116.961 354.33 116.487 354.33C116.072 354.33 115.709 354.439 115.398 354.658C115.09 354.873 114.849 355.181 114.677 355.582C114.505 355.98 114.418 356.451 114.418 356.994C114.418 357.551 114.503 358.032 114.672 358.436C114.841 358.84 115.08 359.154 115.388 359.376C115.699 359.598 116.066 359.709 116.487 359.709C116.768 359.709 117.024 359.657 117.252 359.555C117.484 359.449 117.678 359.298 117.834 359.102C117.993 358.907 118.104 358.671 118.167 358.396H119.614C119.561 358.89 119.4 359.331 119.131 359.719C118.863 360.107 118.503 360.411 118.053 360.634C117.605 360.856 117.08 360.967 116.477 360.967ZM124.768 353.176V354.369H120.597V353.176H124.768ZM121.715 351.347H123.202V358.57C123.202 358.859 123.245 359.076 123.331 359.222C123.417 359.364 123.528 359.462 123.664 359.515C123.804 359.565 123.954 359.589 124.117 359.589C124.236 359.589 124.34 359.581 124.43 359.565C124.519 359.548 124.589 359.535 124.639 359.525L124.907 360.753C124.821 360.786 124.698 360.819 124.539 360.852C124.38 360.889 124.181 360.909 123.943 360.912C123.552 360.919 123.187 360.849 122.849 360.703C122.511 360.557 122.237 360.332 122.029 360.027C121.82 359.722 121.715 359.339 121.715 358.879V351.347ZM126.412 360.812V353.176H127.899V360.812H126.412ZM127.163 351.998C126.905 351.998 126.682 351.912 126.497 351.739C126.315 351.564 126.223 351.355 126.223 351.113C126.223 350.868 126.315 350.659 126.497 350.487C126.682 350.311 126.905 350.223 127.163 350.223C127.422 350.223 127.642 350.311 127.824 350.487C128.01 350.659 128.103 350.868 128.103 351.113C128.103 351.355 128.01 351.564 127.824 351.739C127.642 351.912 127.422 351.998 127.163 351.998ZM136.431 353.176L133.662 360.812H132.071L129.297 353.176H130.893L132.827 359.053H132.907L134.835 353.176H136.431ZM140.86 360.967C140.107 360.967 139.459 360.806 138.916 360.484C138.376 360.16 137.958 359.704 137.663 359.117C137.371 358.527 137.226 357.836 137.226 357.044C137.226 356.262 137.371 355.572 137.663 354.976C137.958 354.379 138.369 353.914 138.896 353.579C139.426 353.244 140.046 353.077 140.755 353.077C141.186 353.077 141.604 353.148 142.008 353.29C142.413 353.433 142.776 353.657 143.097 353.962C143.419 354.267 143.672 354.663 143.858 355.15C144.043 355.634 144.136 356.222 144.136 356.915V357.442H138.066V356.328H142.679C142.679 355.937 142.6 355.591 142.441 355.289C142.282 354.984 142.058 354.744 141.77 354.568C141.485 354.393 141.15 354.305 140.765 354.305C140.348 354.305 139.983 354.407 139.672 354.613C139.363 354.815 139.125 355.08 138.956 355.408C138.79 355.733 138.707 356.086 138.707 356.467V357.337C138.707 357.848 138.797 358.282 138.976 358.64C139.158 358.998 139.411 359.271 139.736 359.46C140.061 359.646 140.441 359.739 140.875 359.739C141.156 359.739 141.413 359.699 141.645 359.619C141.877 359.536 142.078 359.414 142.247 359.251C142.416 359.089 142.545 358.888 142.635 358.65L144.042 358.903C143.929 359.318 143.727 359.681 143.435 359.992C143.147 360.3 142.784 360.541 142.346 360.713C141.912 360.882 141.417 360.967 140.86 360.967ZM154.328 357.646V353.176H155.819V360.812H154.358V359.49H154.278C154.102 359.898 153.821 360.237 153.433 360.509C153.049 360.778 152.57 360.912 151.996 360.912C151.506 360.912 151.071 360.804 150.694 360.589C150.319 360.37 150.024 360.047 149.809 359.619C149.597 359.192 149.491 358.663 149.491 358.033V353.176H150.977V357.854C150.977 358.375 151.121 358.789 151.41 359.097C151.698 359.406 152.072 359.56 152.533 359.56C152.812 359.56 153.088 359.49 153.363 359.351C153.642 359.212 153.872 359.001 154.054 358.719C154.24 358.438 154.331 358.08 154.328 357.646ZM163.539 355.04L162.192 355.279C162.135 355.107 162.046 354.943 161.923 354.787C161.804 354.631 161.641 354.504 161.436 354.404C161.23 354.305 160.974 354.255 160.665 354.255C160.244 354.255 159.893 354.349 159.611 354.538C159.33 354.724 159.189 354.964 159.189 355.259C159.189 355.514 159.283 355.72 159.472 355.876C159.661 356.031 159.966 356.159 160.387 356.259L161.6 356.537C162.303 356.699 162.826 356.95 163.171 357.288C163.516 357.626 163.688 358.065 163.688 358.605C163.688 359.062 163.556 359.47 163.29 359.828C163.029 360.183 162.662 360.461 162.192 360.663C161.724 360.866 161.182 360.967 160.566 360.967C159.711 360.967 159.013 360.784 158.473 360.42C157.933 360.052 157.601 359.53 157.479 358.854L158.915 358.635C159.005 359.009 159.189 359.293 159.467 359.485C159.746 359.674 160.109 359.768 160.556 359.768C161.043 359.768 161.433 359.667 161.724 359.465C162.016 359.26 162.162 359.009 162.162 358.714C162.162 358.476 162.072 358.275 161.893 358.113C161.718 357.951 161.448 357.828 161.083 357.745L159.79 357.462C159.078 357.299 158.551 357.041 158.209 356.686C157.871 356.331 157.702 355.882 157.702 355.339C157.702 354.888 157.828 354.494 158.08 354.156C158.332 353.817 158.68 353.554 159.124 353.365C159.568 353.173 160.077 353.077 160.65 353.077C161.476 353.077 162.125 353.256 162.599 353.614C163.073 353.968 163.387 354.444 163.539 355.04ZM168.614 360.967C167.861 360.967 167.213 360.806 166.67 360.484C166.13 360.16 165.712 359.704 165.417 359.117C165.125 358.527 164.979 357.836 164.979 357.044C164.979 356.262 165.125 355.572 165.417 354.976C165.712 354.379 166.123 353.914 166.65 353.579C167.18 353.244 167.8 353.077 168.509 353.077C168.94 353.077 169.358 353.148 169.762 353.29C170.167 353.433 170.529 353.657 170.851 353.962C171.172 354.267 171.426 354.663 171.612 355.15C171.797 355.634 171.89 356.222 171.89 356.915V357.442H165.82V356.328H170.433C170.433 355.937 170.354 355.591 170.195 355.289C170.036 354.984 169.812 354.744 169.524 354.568C169.238 354.393 168.904 354.305 168.519 354.305C168.102 354.305 167.737 354.407 167.426 354.613C167.117 354.815 166.879 355.08 166.71 355.408C166.544 355.733 166.461 356.086 166.461 356.467V357.337C166.461 357.848 166.551 358.282 166.729 358.64C166.912 358.998 167.165 359.271 167.49 359.46C167.815 359.646 168.194 359.739 168.629 359.739C168.91 359.739 169.167 359.699 169.399 359.619C169.631 359.536 169.832 359.414 170.001 359.251C170.17 359.089 170.299 358.888 170.389 358.65L171.796 358.903C171.683 359.318 171.481 359.681 171.189 359.992C170.901 360.3 170.538 360.541 170.1 360.713C169.666 360.882 169.171 360.967 168.614 360.967ZM173.539 360.812V353.176H174.976V354.389H175.056C175.195 353.978 175.44 353.655 175.791 353.42C176.146 353.181 176.547 353.062 176.995 353.062C177.087 353.062 177.197 353.065 177.323 353.072C177.452 353.078 177.553 353.087 177.626 353.097V354.518C177.566 354.502 177.46 354.484 177.308 354.464C177.155 354.441 177.003 354.429 176.85 354.429C176.499 354.429 176.186 354.504 175.911 354.653C175.639 354.799 175.424 355.002 175.264 355.264C175.105 355.523 175.026 355.818 175.026 356.149V360.812H173.539ZM184.635 355.04L183.287 355.279C183.231 355.107 183.142 354.943 183.019 354.787C182.9 354.631 182.737 354.504 182.532 354.404C182.326 354.305 182.069 354.255 181.761 354.255C181.34 354.255 180.989 354.349 180.707 354.538C180.425 354.724 180.285 354.964 180.285 355.259C180.285 355.514 180.379 355.72 180.568 355.876C180.757 356.031 181.062 356.159 181.483 356.259L182.696 356.537C183.398 356.699 183.922 356.95 184.267 357.288C184.611 357.626 184.784 358.065 184.784 358.605C184.784 359.062 184.651 359.47 184.386 359.828C184.124 360.183 183.758 360.461 183.287 360.663C182.82 360.866 182.278 360.967 181.662 360.967C180.807 360.967 180.109 360.784 179.569 360.42C179.028 360.052 178.697 359.53 178.574 358.854L180.011 358.635C180.101 359.009 180.285 359.293 180.563 359.485C180.841 359.674 181.204 359.768 181.652 359.768C182.139 359.768 182.528 359.667 182.82 359.465C183.112 359.26 183.258 359.009 183.258 358.714C183.258 358.476 183.168 358.275 182.989 358.113C182.813 357.951 182.543 357.828 182.179 357.745L180.886 357.462C180.174 357.299 179.647 357.041 179.305 356.686C178.967 356.331 178.798 355.882 178.798 355.339C178.798 354.888 178.924 354.494 179.176 354.156C179.428 353.817 179.776 353.554 180.22 353.365C180.664 353.173 181.173 353.077 181.746 353.077C182.571 353.077 183.221 353.256 183.695 353.614C184.169 353.968 184.482 354.444 184.635 355.04Z" fill="#667085"/>
<path d="M114.193 375.994V397.812H110.241V379.84H110.113L105.01 383.1V379.478L110.432 375.994H114.193ZM123.102 394.83L122.964 396.001C122.864 396.896 122.687 397.805 122.431 398.729C122.182 399.659 121.919 400.515 121.642 401.296C121.366 402.077 121.142 402.692 120.971 403.139H118.372C118.471 402.706 118.606 402.116 118.777 401.371C118.954 400.625 119.125 399.787 119.288 398.857C119.451 397.926 119.562 396.982 119.618 396.023L119.693 394.83H123.102ZM134.594 398.228C132.84 398.228 131.334 397.784 130.077 396.896C128.827 396.001 127.865 394.712 127.19 393.029C126.523 391.339 126.189 389.304 126.189 386.925C126.196 384.545 126.533 382.521 127.201 380.852C127.876 379.176 128.838 377.898 130.088 377.017C131.345 376.136 132.847 375.696 134.594 375.696C136.342 375.696 137.844 376.136 139.101 377.017C140.358 377.898 141.32 379.176 141.988 380.852C142.663 382.528 143 384.553 143 386.925C143 389.311 142.663 391.349 141.988 393.04C141.32 394.723 140.358 396.009 139.101 396.896C137.851 397.784 136.349 398.228 134.594 398.228ZM134.594 394.893C135.958 394.893 137.034 394.222 137.822 392.88C138.618 391.531 139.016 389.545 139.016 386.925C139.016 385.192 138.834 383.736 138.472 382.557C138.11 381.378 137.599 380.49 136.938 379.893C136.278 379.29 135.496 378.988 134.594 378.988C133.238 378.988 132.165 379.663 131.377 381.012C130.589 382.354 130.191 384.325 130.184 386.925C130.177 388.665 130.351 390.128 130.706 391.314C131.068 392.5 131.579 393.395 132.24 393.999C132.9 394.595 133.685 394.893 134.594 394.893ZM154.604 398.228C152.85 398.228 151.344 397.784 150.087 396.896C148.837 396.001 147.875 394.712 147.2 393.029C146.532 391.339 146.199 389.304 146.199 386.925C146.206 384.545 146.543 382.521 147.211 380.852C147.885 379.176 148.848 377.898 150.098 377.017C151.355 376.136 152.857 375.696 154.604 375.696C156.351 375.696 157.853 376.136 159.111 377.017C160.368 377.898 161.33 379.176 161.998 380.852C162.672 382.528 163.01 384.553 163.01 386.925C163.01 389.311 162.672 391.349 161.998 393.04C161.33 394.723 160.368 396.009 159.111 396.896C157.861 397.784 156.358 398.228 154.604 398.228ZM154.604 394.893C155.968 394.893 157.044 394.222 157.832 392.88C158.628 391.531 159.025 389.545 159.025 386.925C159.025 385.192 158.844 383.736 158.482 382.557C158.12 381.378 157.608 380.49 156.948 379.893C156.287 379.29 155.506 378.988 154.604 378.988C153.248 378.988 152.175 379.663 151.387 381.012C150.598 382.354 150.201 384.325 150.194 386.925C150.187 388.665 150.361 390.128 150.716 391.314C151.078 392.5 151.589 393.395 152.25 393.999C152.91 394.595 153.695 394.893 154.604 394.893ZM174.614 398.228C172.86 398.228 171.354 397.784 170.097 396.896C168.847 396.001 167.884 394.712 167.21 393.029C166.542 391.339 166.208 389.304 166.208 386.925C166.215 384.545 166.553 382.521 167.22 380.852C167.895 379.176 168.858 377.898 170.108 377.017C171.365 376.136 172.867 375.696 174.614 375.696C176.361 375.696 177.863 376.136 179.12 377.017C180.377 377.898 181.34 379.176 182.007 380.852C182.682 382.528 183.019 384.553 183.019 386.925C183.019 389.311 182.682 391.349 182.007 393.04C181.34 394.723 180.377 396.009 179.12 396.896C177.87 397.784 176.368 398.228 174.614 398.228ZM174.614 394.893C175.978 394.893 177.054 394.222 177.842 392.88C178.637 391.531 179.035 389.545 179.035 386.925C179.035 385.192 178.854 383.736 178.492 382.557C178.13 381.378 177.618 380.49 176.958 379.893C176.297 379.29 175.516 378.988 174.614 378.988C173.257 378.988 172.185 379.663 171.397 381.012C170.608 382.354 170.21 384.325 170.203 386.925C170.196 388.665 170.37 390.128 170.725 391.314C171.088 392.5 171.599 393.395 172.259 393.999C172.92 394.595 173.705 394.893 174.614 394.893Z" fill="#101828"/>
</g>
<defs>
<filter id="filter0_d_203_96" x="28" y="0.8125" width="872" height="532" filterUnits="userSpaceOnUse" color-interpolation-filters="sRGB">
<feFlood flood-opacity="0" result="BackgroundImageFix"/>
<feColorMatrix in="SourceAlpha" type="matrix" values="0 0 0 0 0 0 0 0 0 0 0 0 0 0 0 0 0 0 127 0" result="hardAlpha"/>
<feMorphology radius="12" operator="erode" in="SourceAlpha" result="effect1_dropShadow_203_96"/>
<feOffset dy="24"/>
<feGaussianBlur stdDeviation="24"/>
<feColorMatrix type="matrix" values="0 0 0 0 0.0625882 0 0 0 0 0.0926346 0 0 0 0 0.15702 0 0 0 0.25 0"/>
<feBlend mode="normal" in2="BackgroundImageFix" result="effect1_dropShadow_203_96"/>
<feBlend mode="normal" in="SourceGraphic" in2="effect1_dropShadow_203_96" result="shape"/>
</filter>
<filter id="filter1_b_203_96" x="0" y="232.812" width="288" height="288" filterUnits="userSpaceOnUse" color-interpolation-filters="sRGB">
<feFlood flood-opacity="0" result="BackgroundImageFix"/>
<feGaussianBlur in="BackgroundImage" stdDeviation="4"/>
<feComposite in2="SourceAlpha" operator="in" result="effect1_backgroundBlur_203_96"/>
<feBlend mode="normal" in="SourceGraphic" in2="effect1_backgroundBlur_203_96" result="shape"/>
</filter>
<linearGradient id="paint0_linear_203_96" x1="464" y1="155.229" x2="464" y2="405.167" gradientUnits="userSpaceOnUse">
<stop stop-color="#1570EF"/>
<stop offset="1" stop-color="#1570EF"/>
</linearGradient>
</defs>
</svg>
