<svg width="279" height="250" viewBox="0 0 279 250" fill="none" xmlns="http://www.w3.org/2000/svg">
<path d="M152.499 0.416016C132.527 0.416016 112.751 4.34977 94.2996 11.9927C75.848 19.6356 59.0824 30.838 44.9602 44.9602C16.439 73.4814 0.416016 112.164 0.416016 152.499C0.416016 192.834 16.439 231.517 44.9602 260.039C59.0824 274.161 75.848 285.363 94.2996 293.006C112.751 300.649 132.527 304.583 152.499 304.583C192.834 304.583 231.517 288.56 260.039 260.039C288.56 231.517 304.583 192.834 304.583 152.499C304.583 132.527 300.649 112.751 293.006 94.2996C285.363 75.848 274.161 59.0824 260.039 44.9602C245.916 30.838 229.151 19.6356 210.699 11.9927C192.248 4.34977 172.471 0.416016 152.499 0.416016ZM76.4577 114.479C76.4577 102.312 87.1035 91.666 99.2702 91.666C111.437 91.666 122.083 102.312 122.083 114.479C122.083 126.645 111.437 137.291 99.2702 137.291C87.1035 137.291 76.4577 126.645 76.4577 114.479ZM194.626 232.039C187.783 220.937 171.51 213.333 152.499 213.333C133.489 213.333 117.216 220.937 110.372 232.039L88.7764 210.443C102.464 193.866 125.885 182.916 152.499 182.916C179.114 182.916 202.535 193.866 216.222 210.443L194.626 232.039ZM205.729 137.291C193.562 137.291 182.916 126.645 182.916 114.479C182.916 102.312 193.562 91.666 205.729 91.666C217.895 91.666 228.541 102.312 228.541 114.479C228.541 126.645 217.895 137.291 205.729 137.291Z" fill="#9B6464"/>
</svg>
