<svg width="255" height="224" viewBox="0 0 255 224" fill="none" xmlns="http://www.w3.org/2000/svg">
<path d="M144.5 0.5625C65.0131 0.5625 0.5625 65.0131 0.5625 144.5C0.5625 223.987 65.0131 288.438 144.5 288.438C223.987 288.438 288.438 223.987 288.438 144.5C288.438 65.0131 223.987 0.5625 144.5 0.5625ZM72.5312 115.263C72.6136 111.227 74.2746 107.385 77.1578 104.56C80.041 101.735 83.9167 100.152 87.9531 100.152C91.9896 100.152 95.8652 101.735 98.7484 104.56C101.632 107.385 103.293 111.227 103.375 115.263C103.293 119.298 101.632 123.141 98.7484 125.966C95.8652 128.791 91.9896 130.373 87.9531 130.373C83.9167 130.373 80.041 128.791 77.1578 125.966C74.2746 123.141 72.6136 119.298 72.5312 115.263ZM144.5 202.653C117.03 202.653 94.5074 181.031 93.0938 153.946C93.0763 153.598 93.1299 153.25 93.2512 152.923C93.3726 152.596 93.5592 152.297 93.7996 152.045C94.04 151.792 94.3293 151.591 94.6498 151.454C94.9704 151.317 95.3154 151.247 95.6641 151.247H111.118C112.467 151.247 113.624 152.275 113.721 153.625C114.941 169.528 128.275 182.091 144.5 182.091C160.725 182.091 174.091 169.528 175.279 153.625C175.376 152.275 176.533 151.247 177.882 151.247H193.336C193.685 151.247 194.03 151.317 194.35 151.454C194.671 151.591 194.96 151.792 195.2 152.045C195.441 152.297 195.627 152.596 195.749 152.923C195.87 153.25 195.924 153.598 195.906 153.946C194.493 181.031 171.97 202.653 144.5 202.653ZM201.047 130.685C197.011 130.602 193.169 128.941 190.344 126.058C187.519 123.175 185.937 119.299 185.937 115.263C185.937 111.226 187.519 107.351 190.344 104.467C193.169 101.584 197.011 99.9232 201.047 99.8408C205.083 99.9232 208.925 101.584 211.75 104.467C214.575 107.351 216.157 111.226 216.157 115.263C216.157 119.299 214.575 123.175 211.75 126.058C208.925 128.941 205.083 130.602 201.047 130.685Z" fill="#D2E8D8"/>
</svg>
